G75*
%MOIN*%
%OFA0B0*%
%FSLAX24Y24*%
%IPPOS*%
%LPD*%
%AMOC8*
5,1,8,0,0,1.08239X$1,22.5*
%
%ADD10C,0.0000*%
%ADD11C,0.0040*%
%ADD12C,0.0060*%
%ADD13C,0.0050*%
%ADD14C,0.0020*%
%ADD15C,0.0120*%
%ADD16R,0.0200X0.0850*%
%ADD17C,0.0100*%
%ADD18C,0.0080*%
%ADD19R,0.0200X0.0800*%
%ADD20R,0.0250X0.0200*%
D10*
X002256Y000430D02*
X002256Y027180D01*
X022006Y027180D01*
X022006Y000430D01*
X002256Y000430D01*
X002610Y001505D02*
X002612Y001555D01*
X002618Y001605D01*
X002628Y001654D01*
X002642Y001702D01*
X002659Y001749D01*
X002680Y001794D01*
X002705Y001838D01*
X002733Y001879D01*
X002765Y001918D01*
X002799Y001955D01*
X002836Y001989D01*
X002876Y002019D01*
X002918Y002046D01*
X002962Y002070D01*
X003008Y002091D01*
X003055Y002107D01*
X003103Y002120D01*
X003153Y002129D01*
X003202Y002134D01*
X003253Y002135D01*
X003303Y002132D01*
X003352Y002125D01*
X003401Y002114D01*
X003449Y002099D01*
X003495Y002081D01*
X003540Y002059D01*
X003583Y002033D01*
X003624Y002004D01*
X003663Y001972D01*
X003699Y001937D01*
X003731Y001899D01*
X003761Y001859D01*
X003788Y001816D01*
X003811Y001772D01*
X003830Y001726D01*
X003846Y001678D01*
X003858Y001629D01*
X003866Y001580D01*
X003870Y001530D01*
X003870Y001480D01*
X003866Y001430D01*
X003858Y001381D01*
X003846Y001332D01*
X003830Y001284D01*
X003811Y001238D01*
X003788Y001194D01*
X003761Y001151D01*
X003731Y001111D01*
X003699Y001073D01*
X003663Y001038D01*
X003624Y001006D01*
X003583Y000977D01*
X003540Y000951D01*
X003495Y000929D01*
X003449Y000911D01*
X003401Y000896D01*
X003352Y000885D01*
X003303Y000878D01*
X003253Y000875D01*
X003202Y000876D01*
X003153Y000881D01*
X003103Y000890D01*
X003055Y000903D01*
X003008Y000919D01*
X002962Y000940D01*
X002918Y000964D01*
X002876Y000991D01*
X002836Y001021D01*
X002799Y001055D01*
X002765Y001092D01*
X002733Y001131D01*
X002705Y001172D01*
X002680Y001216D01*
X002659Y001261D01*
X002642Y001308D01*
X002628Y001356D01*
X002618Y001405D01*
X002612Y001455D01*
X002610Y001505D01*
X004068Y022930D02*
X004070Y022967D01*
X004076Y023004D01*
X004085Y023040D01*
X004099Y023074D01*
X004116Y023107D01*
X004136Y023139D01*
X004159Y023168D01*
X004185Y023194D01*
X004214Y023217D01*
X004245Y023237D01*
X004279Y023254D01*
X004313Y023268D01*
X004349Y023277D01*
X004386Y023283D01*
X004423Y023285D01*
X004460Y023283D01*
X004497Y023277D01*
X004533Y023268D01*
X004567Y023254D01*
X004600Y023237D01*
X004632Y023217D01*
X004661Y023194D01*
X004687Y023168D01*
X004710Y023139D01*
X004730Y023108D01*
X004747Y023074D01*
X004761Y023040D01*
X004770Y023004D01*
X004776Y022967D01*
X004778Y022930D01*
X004776Y022893D01*
X004770Y022856D01*
X004761Y022820D01*
X004747Y022786D01*
X004730Y022753D01*
X004710Y022721D01*
X004687Y022692D01*
X004661Y022666D01*
X004632Y022643D01*
X004601Y022623D01*
X004567Y022606D01*
X004533Y022592D01*
X004497Y022583D01*
X004460Y022577D01*
X004423Y022575D01*
X004386Y022577D01*
X004349Y022583D01*
X004313Y022592D01*
X004279Y022606D01*
X004246Y022623D01*
X004214Y022643D01*
X004185Y022666D01*
X004159Y022692D01*
X004136Y022721D01*
X004116Y022752D01*
X004099Y022786D01*
X004085Y022820D01*
X004076Y022856D01*
X004070Y022893D01*
X004068Y022930D01*
X002610Y026127D02*
X002612Y026177D01*
X002618Y026227D01*
X002628Y026276D01*
X002642Y026324D01*
X002659Y026371D01*
X002680Y026416D01*
X002705Y026460D01*
X002733Y026501D01*
X002765Y026540D01*
X002799Y026577D01*
X002836Y026611D01*
X002876Y026641D01*
X002918Y026668D01*
X002962Y026692D01*
X003008Y026713D01*
X003055Y026729D01*
X003103Y026742D01*
X003153Y026751D01*
X003202Y026756D01*
X003253Y026757D01*
X003303Y026754D01*
X003352Y026747D01*
X003401Y026736D01*
X003449Y026721D01*
X003495Y026703D01*
X003540Y026681D01*
X003583Y026655D01*
X003624Y026626D01*
X003663Y026594D01*
X003699Y026559D01*
X003731Y026521D01*
X003761Y026481D01*
X003788Y026438D01*
X003811Y026394D01*
X003830Y026348D01*
X003846Y026300D01*
X003858Y026251D01*
X003866Y026202D01*
X003870Y026152D01*
X003870Y026102D01*
X003866Y026052D01*
X003858Y026003D01*
X003846Y025954D01*
X003830Y025906D01*
X003811Y025860D01*
X003788Y025816D01*
X003761Y025773D01*
X003731Y025733D01*
X003699Y025695D01*
X003663Y025660D01*
X003624Y025628D01*
X003583Y025599D01*
X003540Y025573D01*
X003495Y025551D01*
X003449Y025533D01*
X003401Y025518D01*
X003352Y025507D01*
X003303Y025500D01*
X003253Y025497D01*
X003202Y025498D01*
X003153Y025503D01*
X003103Y025512D01*
X003055Y025525D01*
X003008Y025541D01*
X002962Y025562D01*
X002918Y025586D01*
X002876Y025613D01*
X002836Y025643D01*
X002799Y025677D01*
X002765Y025714D01*
X002733Y025753D01*
X002705Y025794D01*
X002680Y025838D01*
X002659Y025883D01*
X002642Y025930D01*
X002628Y025978D01*
X002618Y026027D01*
X002612Y026077D01*
X002610Y026127D01*
X007608Y022930D02*
X007610Y022967D01*
X007616Y023004D01*
X007625Y023040D01*
X007639Y023074D01*
X007656Y023107D01*
X007676Y023139D01*
X007699Y023168D01*
X007725Y023194D01*
X007754Y023217D01*
X007785Y023237D01*
X007819Y023254D01*
X007853Y023268D01*
X007889Y023277D01*
X007926Y023283D01*
X007963Y023285D01*
X008000Y023283D01*
X008037Y023277D01*
X008073Y023268D01*
X008107Y023254D01*
X008140Y023237D01*
X008172Y023217D01*
X008201Y023194D01*
X008227Y023168D01*
X008250Y023139D01*
X008270Y023108D01*
X008287Y023074D01*
X008301Y023040D01*
X008310Y023004D01*
X008316Y022967D01*
X008318Y022930D01*
X008316Y022893D01*
X008310Y022856D01*
X008301Y022820D01*
X008287Y022786D01*
X008270Y022753D01*
X008250Y022721D01*
X008227Y022692D01*
X008201Y022666D01*
X008172Y022643D01*
X008141Y022623D01*
X008107Y022606D01*
X008073Y022592D01*
X008037Y022583D01*
X008000Y022577D01*
X007963Y022575D01*
X007926Y022577D01*
X007889Y022583D01*
X007853Y022592D01*
X007819Y022606D01*
X007786Y022623D01*
X007754Y022643D01*
X007725Y022666D01*
X007699Y022692D01*
X007676Y022721D01*
X007656Y022752D01*
X007639Y022786D01*
X007625Y022820D01*
X007616Y022856D01*
X007610Y022893D01*
X007608Y022930D01*
X009974Y022930D02*
X009976Y022967D01*
X009982Y023004D01*
X009991Y023040D01*
X010005Y023074D01*
X010022Y023107D01*
X010042Y023139D01*
X010065Y023168D01*
X010091Y023194D01*
X010120Y023217D01*
X010151Y023237D01*
X010185Y023254D01*
X010219Y023268D01*
X010255Y023277D01*
X010292Y023283D01*
X010329Y023285D01*
X010366Y023283D01*
X010403Y023277D01*
X010439Y023268D01*
X010473Y023254D01*
X010506Y023237D01*
X010538Y023217D01*
X010567Y023194D01*
X010593Y023168D01*
X010616Y023139D01*
X010636Y023108D01*
X010653Y023074D01*
X010667Y023040D01*
X010676Y023004D01*
X010682Y022967D01*
X010684Y022930D01*
X010682Y022893D01*
X010676Y022856D01*
X010667Y022820D01*
X010653Y022786D01*
X010636Y022753D01*
X010616Y022721D01*
X010593Y022692D01*
X010567Y022666D01*
X010538Y022643D01*
X010507Y022623D01*
X010473Y022606D01*
X010439Y022592D01*
X010403Y022583D01*
X010366Y022577D01*
X010329Y022575D01*
X010292Y022577D01*
X010255Y022583D01*
X010219Y022592D01*
X010185Y022606D01*
X010152Y022623D01*
X010120Y022643D01*
X010091Y022666D01*
X010065Y022692D01*
X010042Y022721D01*
X010022Y022752D01*
X010005Y022786D01*
X009991Y022820D01*
X009982Y022856D01*
X009976Y022893D01*
X009974Y022930D01*
X013514Y022930D02*
X013516Y022967D01*
X013522Y023004D01*
X013531Y023040D01*
X013545Y023074D01*
X013562Y023107D01*
X013582Y023139D01*
X013605Y023168D01*
X013631Y023194D01*
X013660Y023217D01*
X013691Y023237D01*
X013725Y023254D01*
X013759Y023268D01*
X013795Y023277D01*
X013832Y023283D01*
X013869Y023285D01*
X013906Y023283D01*
X013943Y023277D01*
X013979Y023268D01*
X014013Y023254D01*
X014046Y023237D01*
X014078Y023217D01*
X014107Y023194D01*
X014133Y023168D01*
X014156Y023139D01*
X014176Y023108D01*
X014193Y023074D01*
X014207Y023040D01*
X014216Y023004D01*
X014222Y022967D01*
X014224Y022930D01*
X014222Y022893D01*
X014216Y022856D01*
X014207Y022820D01*
X014193Y022786D01*
X014176Y022753D01*
X014156Y022721D01*
X014133Y022692D01*
X014107Y022666D01*
X014078Y022643D01*
X014047Y022623D01*
X014013Y022606D01*
X013979Y022592D01*
X013943Y022583D01*
X013906Y022577D01*
X013869Y022575D01*
X013832Y022577D01*
X013795Y022583D01*
X013759Y022592D01*
X013725Y022606D01*
X013692Y022623D01*
X013660Y022643D01*
X013631Y022666D01*
X013605Y022692D01*
X013582Y022721D01*
X013562Y022752D01*
X013545Y022786D01*
X013531Y022820D01*
X013522Y022856D01*
X013516Y022893D01*
X013514Y022930D01*
X015879Y022930D02*
X015881Y022967D01*
X015887Y023004D01*
X015896Y023040D01*
X015910Y023074D01*
X015927Y023107D01*
X015947Y023139D01*
X015970Y023168D01*
X015996Y023194D01*
X016025Y023217D01*
X016056Y023237D01*
X016090Y023254D01*
X016124Y023268D01*
X016160Y023277D01*
X016197Y023283D01*
X016234Y023285D01*
X016271Y023283D01*
X016308Y023277D01*
X016344Y023268D01*
X016378Y023254D01*
X016411Y023237D01*
X016443Y023217D01*
X016472Y023194D01*
X016498Y023168D01*
X016521Y023139D01*
X016541Y023108D01*
X016558Y023074D01*
X016572Y023040D01*
X016581Y023004D01*
X016587Y022967D01*
X016589Y022930D01*
X016587Y022893D01*
X016581Y022856D01*
X016572Y022820D01*
X016558Y022786D01*
X016541Y022753D01*
X016521Y022721D01*
X016498Y022692D01*
X016472Y022666D01*
X016443Y022643D01*
X016412Y022623D01*
X016378Y022606D01*
X016344Y022592D01*
X016308Y022583D01*
X016271Y022577D01*
X016234Y022575D01*
X016197Y022577D01*
X016160Y022583D01*
X016124Y022592D01*
X016090Y022606D01*
X016057Y022623D01*
X016025Y022643D01*
X015996Y022666D01*
X015970Y022692D01*
X015947Y022721D01*
X015927Y022752D01*
X015910Y022786D01*
X015896Y022820D01*
X015887Y022856D01*
X015881Y022893D01*
X015879Y022930D01*
X019419Y022930D02*
X019421Y022967D01*
X019427Y023004D01*
X019436Y023040D01*
X019450Y023074D01*
X019467Y023107D01*
X019487Y023139D01*
X019510Y023168D01*
X019536Y023194D01*
X019565Y023217D01*
X019596Y023237D01*
X019630Y023254D01*
X019664Y023268D01*
X019700Y023277D01*
X019737Y023283D01*
X019774Y023285D01*
X019811Y023283D01*
X019848Y023277D01*
X019884Y023268D01*
X019918Y023254D01*
X019951Y023237D01*
X019983Y023217D01*
X020012Y023194D01*
X020038Y023168D01*
X020061Y023139D01*
X020081Y023108D01*
X020098Y023074D01*
X020112Y023040D01*
X020121Y023004D01*
X020127Y022967D01*
X020129Y022930D01*
X020127Y022893D01*
X020121Y022856D01*
X020112Y022820D01*
X020098Y022786D01*
X020081Y022753D01*
X020061Y022721D01*
X020038Y022692D01*
X020012Y022666D01*
X019983Y022643D01*
X019952Y022623D01*
X019918Y022606D01*
X019884Y022592D01*
X019848Y022583D01*
X019811Y022577D01*
X019774Y022575D01*
X019737Y022577D01*
X019700Y022583D01*
X019664Y022592D01*
X019630Y022606D01*
X019597Y022623D01*
X019565Y022643D01*
X019536Y022666D01*
X019510Y022692D01*
X019487Y022721D01*
X019467Y022752D01*
X019450Y022786D01*
X019436Y022820D01*
X019427Y022856D01*
X019421Y022893D01*
X019419Y022930D01*
X020327Y026127D02*
X020329Y026177D01*
X020335Y026227D01*
X020345Y026276D01*
X020359Y026324D01*
X020376Y026371D01*
X020397Y026416D01*
X020422Y026460D01*
X020450Y026501D01*
X020482Y026540D01*
X020516Y026577D01*
X020553Y026611D01*
X020593Y026641D01*
X020635Y026668D01*
X020679Y026692D01*
X020725Y026713D01*
X020772Y026729D01*
X020820Y026742D01*
X020870Y026751D01*
X020919Y026756D01*
X020970Y026757D01*
X021020Y026754D01*
X021069Y026747D01*
X021118Y026736D01*
X021166Y026721D01*
X021212Y026703D01*
X021257Y026681D01*
X021300Y026655D01*
X021341Y026626D01*
X021380Y026594D01*
X021416Y026559D01*
X021448Y026521D01*
X021478Y026481D01*
X021505Y026438D01*
X021528Y026394D01*
X021547Y026348D01*
X021563Y026300D01*
X021575Y026251D01*
X021583Y026202D01*
X021587Y026152D01*
X021587Y026102D01*
X021583Y026052D01*
X021575Y026003D01*
X021563Y025954D01*
X021547Y025906D01*
X021528Y025860D01*
X021505Y025816D01*
X021478Y025773D01*
X021448Y025733D01*
X021416Y025695D01*
X021380Y025660D01*
X021341Y025628D01*
X021300Y025599D01*
X021257Y025573D01*
X021212Y025551D01*
X021166Y025533D01*
X021118Y025518D01*
X021069Y025507D01*
X021020Y025500D01*
X020970Y025497D01*
X020919Y025498D01*
X020870Y025503D01*
X020820Y025512D01*
X020772Y025525D01*
X020725Y025541D01*
X020679Y025562D01*
X020635Y025586D01*
X020593Y025613D01*
X020553Y025643D01*
X020516Y025677D01*
X020482Y025714D01*
X020450Y025753D01*
X020422Y025794D01*
X020397Y025838D01*
X020376Y025883D01*
X020359Y025930D01*
X020345Y025978D01*
X020335Y026027D01*
X020329Y026077D01*
X020327Y026127D01*
X020327Y001702D02*
X020329Y001752D01*
X020335Y001802D01*
X020345Y001851D01*
X020359Y001899D01*
X020376Y001946D01*
X020397Y001991D01*
X020422Y002035D01*
X020450Y002076D01*
X020482Y002115D01*
X020516Y002152D01*
X020553Y002186D01*
X020593Y002216D01*
X020635Y002243D01*
X020679Y002267D01*
X020725Y002288D01*
X020772Y002304D01*
X020820Y002317D01*
X020870Y002326D01*
X020919Y002331D01*
X020970Y002332D01*
X021020Y002329D01*
X021069Y002322D01*
X021118Y002311D01*
X021166Y002296D01*
X021212Y002278D01*
X021257Y002256D01*
X021300Y002230D01*
X021341Y002201D01*
X021380Y002169D01*
X021416Y002134D01*
X021448Y002096D01*
X021478Y002056D01*
X021505Y002013D01*
X021528Y001969D01*
X021547Y001923D01*
X021563Y001875D01*
X021575Y001826D01*
X021583Y001777D01*
X021587Y001727D01*
X021587Y001677D01*
X021583Y001627D01*
X021575Y001578D01*
X021563Y001529D01*
X021547Y001481D01*
X021528Y001435D01*
X021505Y001391D01*
X021478Y001348D01*
X021448Y001308D01*
X021416Y001270D01*
X021380Y001235D01*
X021341Y001203D01*
X021300Y001174D01*
X021257Y001148D01*
X021212Y001126D01*
X021166Y001108D01*
X021118Y001093D01*
X021069Y001082D01*
X021020Y001075D01*
X020970Y001072D01*
X020919Y001073D01*
X020870Y001078D01*
X020820Y001087D01*
X020772Y001100D01*
X020725Y001116D01*
X020679Y001137D01*
X020635Y001161D01*
X020593Y001188D01*
X020553Y001218D01*
X020516Y001252D01*
X020482Y001289D01*
X020450Y001328D01*
X020422Y001369D01*
X020397Y001413D01*
X020376Y001458D01*
X020359Y001505D01*
X020345Y001553D01*
X020335Y001602D01*
X020329Y001652D01*
X020327Y001702D01*
D11*
X013465Y001796D02*
X013158Y001796D01*
X013005Y001796D02*
X012928Y001796D01*
X012928Y001873D01*
X013005Y001873D01*
X013005Y001796D01*
X012774Y001796D02*
X012468Y001796D01*
X012774Y002103D01*
X012774Y002180D01*
X012698Y002257D01*
X012544Y002257D01*
X012468Y002180D01*
X012314Y002257D02*
X012314Y001950D01*
X012161Y001796D01*
X012007Y001950D01*
X012007Y002257D01*
X011736Y002700D02*
X011276Y003007D01*
X011276Y003160D02*
X011276Y003391D01*
X011352Y003467D01*
X011429Y003467D01*
X011506Y003391D01*
X011506Y003160D01*
X011736Y003160D02*
X011736Y003391D01*
X011659Y003467D01*
X011583Y003467D01*
X011506Y003391D01*
X011506Y003621D02*
X011506Y003774D01*
X011736Y003621D02*
X011736Y003928D01*
X011736Y004081D02*
X011736Y004388D01*
X011506Y004235D02*
X011506Y004081D01*
X011276Y004081D02*
X011736Y004081D01*
X011736Y003621D02*
X011276Y003621D01*
X011276Y003928D01*
X011276Y004081D02*
X011276Y004388D01*
X011276Y003160D02*
X011736Y003160D01*
X011736Y003007D02*
X011276Y002700D01*
X011240Y002257D02*
X011317Y002257D01*
X011317Y001796D01*
X011393Y001796D02*
X011240Y001796D01*
X011086Y001873D02*
X011086Y002027D01*
X011010Y002103D01*
X010856Y002103D01*
X010779Y002027D01*
X010779Y001873D01*
X010856Y001796D01*
X011010Y001796D01*
X011086Y001873D01*
X010626Y002103D02*
X010549Y002103D01*
X010396Y001950D01*
X010396Y002103D02*
X010396Y001796D01*
X010242Y001796D02*
X010166Y001873D01*
X010166Y002180D01*
X010089Y002103D02*
X010242Y002103D01*
X009935Y002027D02*
X009935Y001796D01*
X009935Y002027D02*
X009859Y002103D01*
X009628Y002103D01*
X009628Y001796D01*
X009475Y001873D02*
X009475Y002027D01*
X009398Y002103D01*
X009245Y002103D01*
X009168Y002027D01*
X009168Y001873D01*
X009245Y001796D01*
X009398Y001796D01*
X009475Y001873D01*
X009552Y001507D02*
X009552Y001046D01*
X009705Y001046D02*
X009398Y001046D01*
X009245Y001123D02*
X009168Y001046D01*
X009015Y001046D01*
X008938Y001123D01*
X009245Y001430D01*
X009245Y001123D01*
X009398Y001353D02*
X009552Y001507D01*
X009245Y001430D02*
X009168Y001507D01*
X009015Y001507D01*
X008938Y001430D01*
X008938Y001123D01*
X008784Y001046D02*
X008477Y001046D01*
X008784Y001353D01*
X008784Y001430D01*
X008708Y001507D01*
X008554Y001507D01*
X008477Y001430D01*
X008324Y001430D02*
X008324Y001277D01*
X008247Y001200D01*
X008247Y001353D01*
X008094Y001353D01*
X008094Y001200D01*
X008247Y001200D01*
X008324Y001123D02*
X008247Y001046D01*
X008094Y001046D01*
X008017Y001123D01*
X008017Y001430D01*
X008094Y001507D01*
X008247Y001507D01*
X008324Y001430D01*
X008708Y001873D02*
X008784Y001796D01*
X008938Y001796D01*
X009015Y001873D01*
X009015Y002180D02*
X008938Y002257D01*
X008784Y002257D01*
X008708Y002180D01*
X008708Y001873D01*
X008094Y001950D02*
X007787Y001950D01*
X007787Y002027D02*
X007864Y002103D01*
X008017Y002103D01*
X008094Y002027D01*
X008094Y001950D01*
X008017Y001796D02*
X007864Y001796D01*
X007787Y001873D01*
X007787Y002027D01*
X007633Y002103D02*
X007480Y002103D01*
X007557Y002180D02*
X007557Y001873D01*
X007633Y001796D01*
X007326Y001873D02*
X007326Y002027D01*
X007250Y002103D01*
X007096Y002103D01*
X007020Y002027D01*
X007020Y001873D01*
X007096Y001796D01*
X007250Y001796D01*
X007326Y001873D01*
X007326Y001584D02*
X007326Y001507D01*
X007326Y001353D02*
X007326Y001046D01*
X007250Y001046D02*
X007403Y001046D01*
X007557Y001046D02*
X007864Y001046D01*
X007864Y001353D02*
X007557Y001046D01*
X007557Y001353D02*
X007864Y001353D01*
X007326Y001353D02*
X007250Y001353D01*
X007096Y001353D02*
X007096Y001046D01*
X006866Y001046D01*
X006789Y001123D01*
X006789Y001353D01*
X006636Y001353D02*
X006559Y001353D01*
X006406Y001200D01*
X006406Y001353D02*
X006406Y001046D01*
X006252Y001123D02*
X006252Y001277D01*
X006175Y001353D01*
X006022Y001353D01*
X005945Y001277D01*
X005945Y001123D01*
X006022Y001046D01*
X006175Y001046D01*
X006252Y001123D01*
X005792Y000970D02*
X005792Y001353D01*
X005792Y001507D02*
X005792Y001584D01*
X005945Y001796D02*
X005792Y001950D01*
X005869Y001950D02*
X005638Y001950D01*
X005638Y001796D02*
X005638Y002257D01*
X005869Y002257D01*
X005945Y002180D01*
X005945Y002027D01*
X005869Y001950D01*
X006099Y001950D02*
X006406Y001950D01*
X006406Y002027D01*
X006329Y002103D01*
X006175Y002103D01*
X006099Y002027D01*
X006099Y001873D01*
X006175Y001796D01*
X006329Y001796D01*
X006559Y001796D02*
X006559Y002103D01*
X006636Y002103D01*
X006713Y002027D01*
X006789Y002103D01*
X006866Y002027D01*
X006866Y001796D01*
X006713Y001796D02*
X006713Y002027D01*
X005792Y000970D02*
X005715Y000893D01*
X005638Y000893D01*
X009859Y001277D02*
X010166Y001277D01*
X010089Y001507D02*
X010089Y001046D01*
X009859Y001277D02*
X010089Y001507D01*
X013158Y002103D02*
X013312Y002257D01*
X013312Y001796D01*
X007236Y015200D02*
X006776Y015200D01*
X006776Y015430D01*
X006852Y015507D01*
X007006Y015507D01*
X007083Y015430D01*
X007083Y015200D01*
X007083Y015353D02*
X007236Y015507D01*
X007236Y015660D02*
X007236Y015967D01*
X007159Y016121D02*
X007236Y016198D01*
X007236Y016351D01*
X007159Y016428D01*
X007006Y016428D01*
X007006Y016274D01*
X007159Y016121D02*
X006852Y016121D01*
X006776Y016198D01*
X006776Y016351D01*
X006852Y016428D01*
X006929Y016581D02*
X006776Y016735D01*
X007236Y016735D01*
X007236Y016888D02*
X007236Y016581D01*
X006776Y015967D02*
X006776Y015660D01*
X007236Y015660D01*
X007006Y015660D02*
X007006Y015814D01*
X003293Y019184D02*
X002987Y019184D01*
X003140Y019184D02*
X003140Y019645D01*
X002987Y019491D01*
X002833Y019645D02*
X002680Y019645D01*
X002756Y019645D02*
X002756Y019261D01*
X002680Y019184D01*
X002603Y019184D01*
X002526Y019261D01*
D12*
X003793Y020930D02*
X004193Y020530D01*
X004693Y020530D01*
X003793Y020930D02*
X003693Y021030D01*
X003693Y022230D01*
X003793Y022230D01*
X003793Y022530D01*
X003793Y023330D01*
X003793Y023630D01*
X003693Y023630D01*
X003693Y024830D01*
X003793Y024930D01*
X003793Y023630D01*
X003793Y023330D02*
X003643Y023330D01*
X003643Y022530D01*
X003793Y022530D01*
X003793Y022230D02*
X003793Y020930D01*
X005443Y022180D02*
X006943Y022180D01*
X006943Y023680D01*
X005443Y023680D01*
X005443Y022180D01*
X004793Y022930D02*
X004795Y023005D01*
X004801Y023079D01*
X004811Y023153D01*
X004825Y023226D01*
X004842Y023298D01*
X004864Y023370D01*
X004889Y023440D01*
X004918Y023508D01*
X004951Y023576D01*
X004987Y023641D01*
X005026Y023704D01*
X005069Y023765D01*
X005115Y023824D01*
X005164Y023880D01*
X005216Y023933D01*
X005271Y023984D01*
X005328Y024031D01*
X005388Y024076D01*
X005450Y024117D01*
X005515Y024155D01*
X005581Y024189D01*
X005649Y024220D01*
X005718Y024247D01*
X005789Y024270D01*
X005861Y024290D01*
X005934Y024306D01*
X006007Y024318D01*
X006081Y024326D01*
X006156Y024330D01*
X006230Y024330D01*
X006305Y024326D01*
X006379Y024318D01*
X006452Y024306D01*
X006525Y024290D01*
X006597Y024270D01*
X006668Y024247D01*
X006737Y024220D01*
X006805Y024189D01*
X006871Y024155D01*
X006936Y024117D01*
X006998Y024076D01*
X007058Y024031D01*
X007115Y023984D01*
X007170Y023933D01*
X007222Y023880D01*
X007271Y023824D01*
X007317Y023765D01*
X007360Y023704D01*
X007399Y023641D01*
X007435Y023576D01*
X007468Y023508D01*
X007497Y023440D01*
X007522Y023370D01*
X007544Y023298D01*
X007561Y023226D01*
X007575Y023153D01*
X007585Y023079D01*
X007591Y023005D01*
X007593Y022930D01*
X007591Y022855D01*
X007585Y022781D01*
X007575Y022707D01*
X007561Y022634D01*
X007544Y022562D01*
X007522Y022490D01*
X007497Y022420D01*
X007468Y022352D01*
X007435Y022284D01*
X007399Y022219D01*
X007360Y022156D01*
X007317Y022095D01*
X007271Y022036D01*
X007222Y021980D01*
X007170Y021927D01*
X007115Y021876D01*
X007058Y021829D01*
X006998Y021784D01*
X006936Y021743D01*
X006871Y021705D01*
X006805Y021671D01*
X006737Y021640D01*
X006668Y021613D01*
X006597Y021590D01*
X006525Y021570D01*
X006452Y021554D01*
X006379Y021542D01*
X006305Y021534D01*
X006230Y021530D01*
X006156Y021530D01*
X006081Y021534D01*
X006007Y021542D01*
X005934Y021554D01*
X005861Y021570D01*
X005789Y021590D01*
X005718Y021613D01*
X005649Y021640D01*
X005581Y021671D01*
X005515Y021705D01*
X005450Y021743D01*
X005388Y021784D01*
X005328Y021829D01*
X005271Y021876D01*
X005216Y021927D01*
X005164Y021980D01*
X005115Y022036D01*
X005069Y022095D01*
X005026Y022156D01*
X004987Y022219D01*
X004951Y022284D01*
X004918Y022352D01*
X004889Y022420D01*
X004864Y022490D01*
X004842Y022562D01*
X004825Y022634D01*
X004811Y022707D01*
X004801Y022781D01*
X004795Y022855D01*
X004793Y022930D01*
X003793Y024930D02*
X004193Y025330D01*
X004693Y025330D01*
X005743Y025330D02*
X006643Y025330D01*
X007693Y025330D02*
X008193Y025330D01*
X008593Y024930D01*
X008693Y024830D01*
X008693Y023630D01*
X008593Y023630D01*
X008593Y024930D01*
X009599Y024830D02*
X009599Y023630D01*
X009699Y023630D01*
X009699Y023330D01*
X009549Y023330D01*
X009549Y022530D01*
X009699Y022530D01*
X009699Y022230D01*
X009599Y022230D01*
X009599Y021030D01*
X009699Y020930D01*
X010099Y020530D01*
X010599Y020530D01*
X009699Y020930D02*
X009699Y022230D01*
X009699Y022530D02*
X009699Y023330D01*
X009699Y023630D02*
X009699Y024930D01*
X009599Y024830D01*
X009699Y024930D02*
X010099Y025330D01*
X010599Y025330D01*
X011649Y025330D02*
X012549Y025330D01*
X013599Y025330D02*
X014099Y025330D01*
X014499Y024930D01*
X014599Y024830D01*
X014599Y023630D01*
X014499Y023630D01*
X014499Y024930D01*
X015504Y024830D02*
X015504Y023630D01*
X015604Y023630D01*
X015604Y023330D01*
X015454Y023330D01*
X015454Y022530D01*
X015604Y022530D01*
X015604Y022230D01*
X015504Y022230D01*
X015504Y021030D01*
X015604Y020930D01*
X016004Y020530D01*
X016504Y020530D01*
X015604Y020930D02*
X015604Y022230D01*
X015604Y022530D02*
X015604Y023330D01*
X015604Y023630D02*
X015604Y024930D01*
X015504Y024830D01*
X015604Y024930D02*
X016004Y025330D01*
X016504Y025330D01*
X017554Y025330D02*
X018454Y025330D01*
X019504Y025330D02*
X020004Y025330D01*
X020404Y024930D01*
X020504Y024830D01*
X020504Y023630D01*
X020404Y023630D01*
X020404Y024930D01*
X020404Y023630D02*
X020404Y023330D01*
X020404Y022530D01*
X020404Y022230D01*
X020504Y022230D01*
X020504Y021030D01*
X020404Y020930D01*
X020404Y022230D01*
X020404Y022530D02*
X020554Y022530D01*
X020554Y023330D01*
X020404Y023330D01*
X018754Y023680D02*
X018754Y022180D01*
X017254Y022180D01*
X017254Y023680D01*
X018754Y023680D01*
X016604Y022930D02*
X016606Y023005D01*
X016612Y023079D01*
X016622Y023153D01*
X016636Y023226D01*
X016653Y023298D01*
X016675Y023370D01*
X016700Y023440D01*
X016729Y023508D01*
X016762Y023576D01*
X016798Y023641D01*
X016837Y023704D01*
X016880Y023765D01*
X016926Y023824D01*
X016975Y023880D01*
X017027Y023933D01*
X017082Y023984D01*
X017139Y024031D01*
X017199Y024076D01*
X017261Y024117D01*
X017326Y024155D01*
X017392Y024189D01*
X017460Y024220D01*
X017529Y024247D01*
X017600Y024270D01*
X017672Y024290D01*
X017745Y024306D01*
X017818Y024318D01*
X017892Y024326D01*
X017967Y024330D01*
X018041Y024330D01*
X018116Y024326D01*
X018190Y024318D01*
X018263Y024306D01*
X018336Y024290D01*
X018408Y024270D01*
X018479Y024247D01*
X018548Y024220D01*
X018616Y024189D01*
X018682Y024155D01*
X018747Y024117D01*
X018809Y024076D01*
X018869Y024031D01*
X018926Y023984D01*
X018981Y023933D01*
X019033Y023880D01*
X019082Y023824D01*
X019128Y023765D01*
X019171Y023704D01*
X019210Y023641D01*
X019246Y023576D01*
X019279Y023508D01*
X019308Y023440D01*
X019333Y023370D01*
X019355Y023298D01*
X019372Y023226D01*
X019386Y023153D01*
X019396Y023079D01*
X019402Y023005D01*
X019404Y022930D01*
X019402Y022855D01*
X019396Y022781D01*
X019386Y022707D01*
X019372Y022634D01*
X019355Y022562D01*
X019333Y022490D01*
X019308Y022420D01*
X019279Y022352D01*
X019246Y022284D01*
X019210Y022219D01*
X019171Y022156D01*
X019128Y022095D01*
X019082Y022036D01*
X019033Y021980D01*
X018981Y021927D01*
X018926Y021876D01*
X018869Y021829D01*
X018809Y021784D01*
X018747Y021743D01*
X018682Y021705D01*
X018616Y021671D01*
X018548Y021640D01*
X018479Y021613D01*
X018408Y021590D01*
X018336Y021570D01*
X018263Y021554D01*
X018190Y021542D01*
X018116Y021534D01*
X018041Y021530D01*
X017967Y021530D01*
X017892Y021534D01*
X017818Y021542D01*
X017745Y021554D01*
X017672Y021570D01*
X017600Y021590D01*
X017529Y021613D01*
X017460Y021640D01*
X017392Y021671D01*
X017326Y021705D01*
X017261Y021743D01*
X017199Y021784D01*
X017139Y021829D01*
X017082Y021876D01*
X017027Y021927D01*
X016975Y021980D01*
X016926Y022036D01*
X016880Y022095D01*
X016837Y022156D01*
X016798Y022219D01*
X016762Y022284D01*
X016729Y022352D01*
X016700Y022420D01*
X016675Y022490D01*
X016653Y022562D01*
X016636Y022634D01*
X016622Y022707D01*
X016612Y022781D01*
X016606Y022855D01*
X016604Y022930D01*
X014649Y022530D02*
X014499Y022530D01*
X014499Y022230D01*
X014599Y022230D01*
X014599Y021030D01*
X014499Y020930D01*
X014499Y022230D01*
X014499Y022530D02*
X014499Y023330D01*
X014499Y023630D01*
X014499Y023330D02*
X014649Y023330D01*
X014649Y022530D01*
X014499Y020930D02*
X014099Y020530D01*
X013599Y020530D01*
X012549Y020530D02*
X011649Y020530D01*
X011349Y022180D02*
X012849Y022180D01*
X012849Y023680D01*
X011349Y023680D01*
X011349Y022180D01*
X010699Y022930D02*
X010701Y023005D01*
X010707Y023079D01*
X010717Y023153D01*
X010731Y023226D01*
X010748Y023298D01*
X010770Y023370D01*
X010795Y023440D01*
X010824Y023508D01*
X010857Y023576D01*
X010893Y023641D01*
X010932Y023704D01*
X010975Y023765D01*
X011021Y023824D01*
X011070Y023880D01*
X011122Y023933D01*
X011177Y023984D01*
X011234Y024031D01*
X011294Y024076D01*
X011356Y024117D01*
X011421Y024155D01*
X011487Y024189D01*
X011555Y024220D01*
X011624Y024247D01*
X011695Y024270D01*
X011767Y024290D01*
X011840Y024306D01*
X011913Y024318D01*
X011987Y024326D01*
X012062Y024330D01*
X012136Y024330D01*
X012211Y024326D01*
X012285Y024318D01*
X012358Y024306D01*
X012431Y024290D01*
X012503Y024270D01*
X012574Y024247D01*
X012643Y024220D01*
X012711Y024189D01*
X012777Y024155D01*
X012842Y024117D01*
X012904Y024076D01*
X012964Y024031D01*
X013021Y023984D01*
X013076Y023933D01*
X013128Y023880D01*
X013177Y023824D01*
X013223Y023765D01*
X013266Y023704D01*
X013305Y023641D01*
X013341Y023576D01*
X013374Y023508D01*
X013403Y023440D01*
X013428Y023370D01*
X013450Y023298D01*
X013467Y023226D01*
X013481Y023153D01*
X013491Y023079D01*
X013497Y023005D01*
X013499Y022930D01*
X013497Y022855D01*
X013491Y022781D01*
X013481Y022707D01*
X013467Y022634D01*
X013450Y022562D01*
X013428Y022490D01*
X013403Y022420D01*
X013374Y022352D01*
X013341Y022284D01*
X013305Y022219D01*
X013266Y022156D01*
X013223Y022095D01*
X013177Y022036D01*
X013128Y021980D01*
X013076Y021927D01*
X013021Y021876D01*
X012964Y021829D01*
X012904Y021784D01*
X012842Y021743D01*
X012777Y021705D01*
X012711Y021671D01*
X012643Y021640D01*
X012574Y021613D01*
X012503Y021590D01*
X012431Y021570D01*
X012358Y021554D01*
X012285Y021542D01*
X012211Y021534D01*
X012136Y021530D01*
X012062Y021530D01*
X011987Y021534D01*
X011913Y021542D01*
X011840Y021554D01*
X011767Y021570D01*
X011695Y021590D01*
X011624Y021613D01*
X011555Y021640D01*
X011487Y021671D01*
X011421Y021705D01*
X011356Y021743D01*
X011294Y021784D01*
X011234Y021829D01*
X011177Y021876D01*
X011122Y021927D01*
X011070Y021980D01*
X011021Y022036D01*
X010975Y022095D01*
X010932Y022156D01*
X010893Y022219D01*
X010857Y022284D01*
X010824Y022352D01*
X010795Y022420D01*
X010770Y022490D01*
X010748Y022562D01*
X010731Y022634D01*
X010717Y022707D01*
X010707Y022781D01*
X010701Y022855D01*
X010699Y022930D01*
X008743Y022530D02*
X008593Y022530D01*
X008593Y022230D01*
X008693Y022230D01*
X008693Y021030D01*
X008593Y020930D01*
X008593Y022230D01*
X008593Y022530D02*
X008593Y023330D01*
X008593Y023630D01*
X008593Y023330D02*
X008743Y023330D01*
X008743Y022530D01*
X008593Y020930D02*
X008193Y020530D01*
X007693Y020530D01*
X007156Y019380D02*
X009856Y019380D01*
X009873Y019378D01*
X009890Y019374D01*
X009906Y019367D01*
X009920Y019357D01*
X009933Y019344D01*
X009943Y019330D01*
X009950Y019314D01*
X009954Y019297D01*
X009956Y019280D01*
X009956Y018080D01*
X009954Y018063D01*
X009950Y018046D01*
X009943Y018030D01*
X009933Y018016D01*
X009920Y018003D01*
X009906Y017993D01*
X009890Y017986D01*
X009873Y017982D01*
X009856Y017980D01*
X007156Y017980D01*
X007139Y017982D01*
X007122Y017986D01*
X007106Y017993D01*
X007092Y018003D01*
X007079Y018016D01*
X007069Y018030D01*
X007062Y018046D01*
X007058Y018063D01*
X007056Y018080D01*
X007056Y019280D01*
X007058Y019297D01*
X007062Y019314D01*
X007069Y019330D01*
X007079Y019344D01*
X007092Y019357D01*
X007106Y019367D01*
X007122Y019374D01*
X007139Y019378D01*
X007156Y019380D01*
X007906Y018680D02*
X008386Y018680D01*
X008636Y018680D02*
X009106Y018680D01*
X011056Y018080D02*
X011056Y017930D01*
X011106Y017880D01*
X011106Y015980D01*
X011056Y015930D01*
X011056Y015780D01*
X011058Y015763D01*
X011062Y015746D01*
X011069Y015730D01*
X011079Y015716D01*
X011092Y015703D01*
X011106Y015693D01*
X011122Y015686D01*
X011139Y015682D01*
X011156Y015680D01*
X011856Y015680D02*
X011873Y015682D01*
X011890Y015686D01*
X011906Y015693D01*
X011920Y015703D01*
X011933Y015716D01*
X011943Y015730D01*
X011950Y015746D01*
X011954Y015763D01*
X011956Y015780D01*
X011956Y015930D01*
X011906Y015980D01*
X011906Y017880D01*
X011956Y017930D01*
X011956Y018080D01*
X011954Y018097D01*
X011950Y018114D01*
X011943Y018130D01*
X011933Y018144D01*
X011920Y018157D01*
X011906Y018167D01*
X011890Y018174D01*
X011873Y018178D01*
X011856Y018180D01*
X011156Y018180D02*
X011139Y018178D01*
X011122Y018174D01*
X011106Y018167D01*
X011092Y018157D01*
X011079Y018144D01*
X011069Y018130D01*
X011062Y018114D01*
X011058Y018097D01*
X011056Y018080D01*
X009856Y014180D02*
X007156Y014180D01*
X007139Y014178D01*
X007122Y014174D01*
X007106Y014167D01*
X007092Y014157D01*
X007079Y014144D01*
X007069Y014130D01*
X007062Y014114D01*
X007058Y014097D01*
X007056Y014080D01*
X007056Y013280D01*
X007058Y013263D01*
X007062Y013246D01*
X007069Y013230D01*
X007079Y013216D01*
X007092Y013203D01*
X007106Y013193D01*
X007122Y013186D01*
X007139Y013182D01*
X007156Y013180D01*
X009856Y013180D01*
X009873Y013182D01*
X009890Y013186D01*
X009906Y013193D01*
X009920Y013203D01*
X009933Y013216D01*
X009943Y013230D01*
X009950Y013246D01*
X009954Y013263D01*
X009956Y013280D01*
X009956Y014080D01*
X009954Y014097D01*
X009950Y014114D01*
X009943Y014130D01*
X009933Y014144D01*
X009920Y014157D01*
X009906Y014167D01*
X009890Y014174D01*
X009873Y014178D01*
X009856Y014180D01*
X009106Y013680D02*
X008636Y013680D01*
X008386Y013680D02*
X007906Y013680D01*
X005465Y013919D02*
X005465Y013319D01*
X005463Y013302D01*
X005459Y013285D01*
X005452Y013269D01*
X005442Y013255D01*
X005429Y013242D01*
X005415Y013232D01*
X005399Y013225D01*
X005382Y013221D01*
X005365Y013219D01*
X003765Y013219D01*
X003748Y013221D01*
X003731Y013225D01*
X003715Y013232D01*
X003701Y013242D01*
X003688Y013255D01*
X003678Y013269D01*
X003671Y013285D01*
X003667Y013302D01*
X003665Y013319D01*
X003665Y013919D01*
X003667Y013936D01*
X003671Y013953D01*
X003678Y013969D01*
X003688Y013983D01*
X003701Y013996D01*
X003715Y014006D01*
X003731Y014013D01*
X003748Y014017D01*
X003765Y014019D01*
X005365Y014019D01*
X005382Y014017D01*
X005399Y014013D01*
X005415Y014006D01*
X005429Y013996D01*
X005442Y013983D01*
X005452Y013969D01*
X005459Y013953D01*
X005463Y013936D01*
X005465Y013919D01*
X004815Y013619D02*
X004565Y013619D01*
X004565Y013869D01*
X004565Y013619D02*
X004565Y013369D01*
X004565Y013619D02*
X004165Y013369D01*
X004165Y013869D01*
X004565Y013619D01*
X003965Y013619D01*
X005856Y008880D02*
X007156Y008880D01*
X007182Y008878D01*
X007208Y008873D01*
X007233Y008865D01*
X007256Y008853D01*
X007278Y008839D01*
X007297Y008821D01*
X007315Y008802D01*
X007329Y008780D01*
X007341Y008757D01*
X007349Y008732D01*
X007354Y008706D01*
X007356Y008680D01*
X007006Y008430D02*
X006636Y008430D01*
X006386Y008430D02*
X006006Y008430D01*
X005656Y008180D02*
X005658Y008154D01*
X005663Y008128D01*
X005671Y008103D01*
X005683Y008080D01*
X005697Y008058D01*
X005715Y008039D01*
X005734Y008021D01*
X005756Y008007D01*
X005779Y007995D01*
X005804Y007987D01*
X005830Y007982D01*
X005856Y007980D01*
X007156Y007980D01*
X007182Y007982D01*
X007208Y007987D01*
X007233Y007995D01*
X007256Y008007D01*
X007278Y008021D01*
X007297Y008039D01*
X007315Y008058D01*
X007329Y008080D01*
X007341Y008103D01*
X007349Y008128D01*
X007354Y008154D01*
X007356Y008180D01*
X007156Y006880D02*
X005856Y006880D01*
X005830Y006878D01*
X005804Y006873D01*
X005779Y006865D01*
X005756Y006853D01*
X005734Y006839D01*
X005715Y006821D01*
X005697Y006802D01*
X005683Y006780D01*
X005671Y006757D01*
X005663Y006732D01*
X005658Y006706D01*
X005656Y006680D01*
X006006Y006430D02*
X006386Y006430D01*
X006636Y006430D02*
X007006Y006430D01*
X007356Y006180D02*
X007354Y006154D01*
X007349Y006128D01*
X007341Y006103D01*
X007329Y006080D01*
X007315Y006058D01*
X007297Y006039D01*
X007278Y006021D01*
X007256Y006007D01*
X007233Y005995D01*
X007208Y005987D01*
X007182Y005982D01*
X007156Y005980D01*
X005856Y005980D01*
X005830Y005982D01*
X005804Y005987D01*
X005779Y005995D01*
X005756Y006007D01*
X005734Y006021D01*
X005715Y006039D01*
X005697Y006058D01*
X005683Y006080D01*
X005671Y006103D01*
X005663Y006128D01*
X005658Y006154D01*
X005656Y006180D01*
X007156Y006880D02*
X007182Y006878D01*
X007208Y006873D01*
X007233Y006865D01*
X007256Y006853D01*
X007278Y006839D01*
X007297Y006821D01*
X007315Y006802D01*
X007329Y006780D01*
X007341Y006757D01*
X007349Y006732D01*
X007354Y006706D01*
X007356Y006680D01*
X008856Y006080D02*
X008856Y008780D01*
X008858Y008839D01*
X008864Y008897D01*
X008873Y008956D01*
X008887Y009013D01*
X008904Y009069D01*
X008925Y009124D01*
X008949Y009178D01*
X008977Y009230D01*
X009008Y009280D01*
X009042Y009328D01*
X009079Y009373D01*
X009120Y009416D01*
X009163Y009457D01*
X009208Y009494D01*
X009256Y009528D01*
X009306Y009559D01*
X009358Y009587D01*
X009412Y009611D01*
X009467Y009632D01*
X009523Y009649D01*
X009580Y009663D01*
X009639Y009672D01*
X009697Y009678D01*
X009756Y009680D01*
X009815Y009678D01*
X009873Y009672D01*
X009932Y009663D01*
X009989Y009649D01*
X010045Y009632D01*
X010100Y009611D01*
X010154Y009587D01*
X010206Y009559D01*
X010256Y009528D01*
X010304Y009494D01*
X010349Y009457D01*
X010392Y009416D01*
X010433Y009373D01*
X010470Y009328D01*
X010504Y009280D01*
X010535Y009230D01*
X010563Y009178D01*
X010587Y009124D01*
X010608Y009069D01*
X010625Y009013D01*
X010639Y008956D01*
X010648Y008897D01*
X010654Y008839D01*
X010656Y008780D01*
X010656Y006080D01*
X010654Y006021D01*
X010648Y005963D01*
X010639Y005904D01*
X010625Y005847D01*
X010608Y005791D01*
X010587Y005736D01*
X010563Y005682D01*
X010535Y005630D01*
X010504Y005580D01*
X010470Y005532D01*
X010433Y005487D01*
X010392Y005444D01*
X010349Y005403D01*
X010304Y005366D01*
X010256Y005332D01*
X010206Y005301D01*
X010154Y005273D01*
X010100Y005249D01*
X010045Y005228D01*
X009989Y005211D01*
X009932Y005197D01*
X009873Y005188D01*
X009815Y005182D01*
X009756Y005180D01*
X009697Y005182D01*
X009639Y005188D01*
X009580Y005197D01*
X009523Y005211D01*
X009467Y005228D01*
X009412Y005249D01*
X009358Y005273D01*
X009306Y005301D01*
X009256Y005332D01*
X009208Y005366D01*
X009163Y005403D01*
X009120Y005444D01*
X009079Y005487D01*
X009042Y005532D01*
X009008Y005580D01*
X008977Y005630D01*
X008949Y005682D01*
X008925Y005736D01*
X008904Y005791D01*
X008887Y005847D01*
X008873Y005904D01*
X008864Y005963D01*
X008858Y006021D01*
X008856Y006080D01*
X011806Y006430D02*
X011806Y006580D01*
X011808Y006597D01*
X011812Y006614D01*
X011819Y006630D01*
X011829Y006644D01*
X011842Y006657D01*
X011856Y006667D01*
X011872Y006674D01*
X011889Y006678D01*
X011906Y006680D01*
X011806Y006430D02*
X011856Y006380D01*
X011856Y004480D01*
X011806Y004430D01*
X011806Y004280D01*
X011808Y004263D01*
X011812Y004246D01*
X011819Y004230D01*
X011829Y004216D01*
X011842Y004203D01*
X011856Y004193D01*
X011872Y004186D01*
X011889Y004182D01*
X011906Y004180D01*
X012606Y004180D02*
X012623Y004182D01*
X012640Y004186D01*
X012656Y004193D01*
X012670Y004203D01*
X012683Y004216D01*
X012693Y004230D01*
X012700Y004246D01*
X012704Y004263D01*
X012706Y004280D01*
X012706Y004430D01*
X012656Y004480D01*
X012656Y006380D01*
X012706Y006430D01*
X012706Y006580D01*
X012704Y006597D01*
X012700Y006614D01*
X012693Y006630D01*
X012683Y006644D01*
X012670Y006657D01*
X012656Y006667D01*
X012640Y006674D01*
X012623Y006678D01*
X012606Y006680D01*
X012606Y008180D02*
X012623Y008182D01*
X012640Y008186D01*
X012656Y008193D01*
X012670Y008203D01*
X012683Y008216D01*
X012693Y008230D01*
X012700Y008246D01*
X012704Y008263D01*
X012706Y008280D01*
X012706Y008430D01*
X012656Y008480D01*
X012656Y010380D01*
X012706Y010430D01*
X012706Y010580D01*
X012704Y010597D01*
X012700Y010614D01*
X012693Y010630D01*
X012683Y010644D01*
X012670Y010657D01*
X012656Y010667D01*
X012640Y010674D01*
X012623Y010678D01*
X012606Y010680D01*
X011906Y010680D02*
X011889Y010678D01*
X011872Y010674D01*
X011856Y010667D01*
X011842Y010657D01*
X011829Y010644D01*
X011819Y010630D01*
X011812Y010614D01*
X011808Y010597D01*
X011806Y010580D01*
X011806Y010430D01*
X011856Y010380D01*
X011856Y008480D01*
X011806Y008430D01*
X011806Y008280D01*
X011808Y008263D01*
X011812Y008246D01*
X011819Y008230D01*
X011829Y008216D01*
X011842Y008203D01*
X011856Y008193D01*
X011872Y008186D01*
X011889Y008182D01*
X011906Y008180D01*
X010906Y013930D02*
X010908Y013975D01*
X010913Y014021D01*
X010921Y014065D01*
X010933Y014109D01*
X010949Y014152D01*
X010967Y014194D01*
X010989Y014234D01*
X011013Y014272D01*
X011040Y014308D01*
X011070Y014343D01*
X011103Y014374D01*
X011138Y014404D01*
X012106Y013930D02*
X012104Y013883D01*
X012098Y013835D01*
X012089Y013789D01*
X012076Y013743D01*
X012060Y013699D01*
X012039Y013655D01*
X012016Y013614D01*
X011990Y013575D01*
X011960Y013538D01*
X011927Y013503D01*
X011892Y013471D01*
X011855Y013442D01*
X012106Y013930D02*
X012104Y013976D01*
X012099Y014022D01*
X012090Y014068D01*
X012078Y014113D01*
X012062Y014156D01*
X012043Y014198D01*
X012020Y014239D01*
X011995Y014278D01*
X011967Y014314D01*
X011936Y014349D01*
X011902Y014381D01*
X011866Y014410D01*
X010906Y013930D02*
X010908Y013885D01*
X010913Y013839D01*
X010921Y013795D01*
X010933Y013751D01*
X010949Y013708D01*
X010967Y013666D01*
X010989Y013626D01*
X011013Y013588D01*
X011040Y013552D01*
X011070Y013517D01*
X011103Y013486D01*
X011138Y013456D01*
X014656Y016730D02*
X014656Y002130D01*
X016856Y002130D01*
X016856Y016730D01*
X016006Y016730D01*
X016004Y016700D01*
X015999Y016670D01*
X015990Y016641D01*
X015977Y016614D01*
X015962Y016588D01*
X015943Y016564D01*
X015922Y016543D01*
X015898Y016524D01*
X015872Y016509D01*
X015845Y016496D01*
X015816Y016487D01*
X015786Y016482D01*
X015756Y016480D01*
X015726Y016482D01*
X015696Y016487D01*
X015667Y016496D01*
X015640Y016509D01*
X015614Y016524D01*
X015590Y016543D01*
X015569Y016564D01*
X015550Y016588D01*
X015535Y016614D01*
X015522Y016641D01*
X015513Y016670D01*
X015508Y016700D01*
X015506Y016730D01*
X014656Y016730D01*
X014606Y016980D02*
X014756Y016980D01*
X014806Y017030D01*
X016706Y017030D01*
X016756Y016980D01*
X016906Y016980D01*
X016923Y016982D01*
X016940Y016986D01*
X016956Y016993D01*
X016970Y017003D01*
X016983Y017016D01*
X016993Y017030D01*
X017000Y017046D01*
X017004Y017063D01*
X017006Y017080D01*
X017006Y017780D02*
X017004Y017797D01*
X017000Y017814D01*
X016993Y017830D01*
X016983Y017844D01*
X016970Y017857D01*
X016956Y017867D01*
X016940Y017874D01*
X016923Y017878D01*
X016906Y017880D01*
X016756Y017880D01*
X016706Y017830D01*
X014806Y017830D01*
X014756Y017880D01*
X014606Y017880D01*
X014589Y017878D01*
X014572Y017874D01*
X014556Y017867D01*
X014542Y017857D01*
X014529Y017844D01*
X014519Y017830D01*
X014512Y017814D01*
X014508Y017797D01*
X014506Y017780D01*
X014506Y017080D02*
X014508Y017063D01*
X014512Y017046D01*
X014519Y017030D01*
X014529Y017016D01*
X014542Y017003D01*
X014556Y016993D01*
X014572Y016986D01*
X014589Y016982D01*
X014606Y016980D01*
X017554Y020530D02*
X018454Y020530D01*
X019504Y020530D02*
X020004Y020530D01*
X020404Y020930D01*
X020756Y016930D02*
X021256Y016930D01*
X021506Y016680D01*
X021506Y016180D01*
X021256Y015930D01*
X021506Y015680D01*
X021506Y015180D01*
X021256Y014930D01*
X021506Y014680D01*
X021506Y014180D01*
X021256Y013930D01*
X021506Y013680D01*
X021506Y013180D01*
X021256Y012930D01*
X020756Y012930D01*
X020506Y013180D01*
X020506Y013680D01*
X020756Y013930D01*
X020506Y014180D01*
X020506Y014680D01*
X020756Y014930D01*
X020506Y015180D01*
X020506Y015680D01*
X020756Y015930D01*
X020506Y016180D01*
X020506Y016680D01*
X020756Y016930D01*
X019506Y016780D02*
X019506Y014080D01*
X019504Y014063D01*
X019500Y014046D01*
X019493Y014030D01*
X019483Y014016D01*
X019470Y014003D01*
X019456Y013993D01*
X019440Y013986D01*
X019423Y013982D01*
X019406Y013980D01*
X018606Y013980D01*
X018589Y013982D01*
X018572Y013986D01*
X018556Y013993D01*
X018542Y014003D01*
X018529Y014016D01*
X018519Y014030D01*
X018512Y014046D01*
X018508Y014063D01*
X018506Y014080D01*
X018506Y016780D01*
X018508Y016797D01*
X018512Y016814D01*
X018519Y016830D01*
X018529Y016844D01*
X018542Y016857D01*
X018556Y016867D01*
X018572Y016874D01*
X018589Y016878D01*
X018606Y016880D01*
X019406Y016880D01*
X019423Y016878D01*
X019440Y016874D01*
X019456Y016867D01*
X019470Y016857D01*
X019483Y016844D01*
X019493Y016830D01*
X019500Y016814D01*
X019504Y016797D01*
X019506Y016780D01*
X019006Y016030D02*
X019006Y015560D01*
X019006Y015310D02*
X019006Y014830D01*
X018656Y011680D02*
X021356Y011680D01*
X021373Y011678D01*
X021390Y011674D01*
X021406Y011667D01*
X021420Y011657D01*
X021433Y011644D01*
X021443Y011630D01*
X021450Y011614D01*
X021454Y011597D01*
X021456Y011580D01*
X021456Y010780D01*
X021454Y010763D01*
X021450Y010746D01*
X021443Y010730D01*
X021433Y010716D01*
X021420Y010703D01*
X021406Y010693D01*
X021390Y010686D01*
X021373Y010682D01*
X021356Y010680D01*
X018656Y010680D01*
X018639Y010682D01*
X018622Y010686D01*
X018606Y010693D01*
X018592Y010703D01*
X018579Y010716D01*
X018569Y010730D01*
X018562Y010746D01*
X018558Y010763D01*
X018556Y010780D01*
X018556Y011580D01*
X018558Y011597D01*
X018562Y011614D01*
X018569Y011630D01*
X018579Y011644D01*
X018592Y011657D01*
X018606Y011667D01*
X018622Y011674D01*
X018639Y011678D01*
X018656Y011680D01*
X019406Y011180D02*
X019886Y011180D01*
X020136Y011180D02*
X020606Y011180D01*
X020946Y009020D02*
X020923Y009078D01*
X020896Y009135D01*
X020866Y009190D01*
X020832Y009243D01*
X020795Y009294D01*
X020755Y009342D01*
X020712Y009388D01*
X020667Y009431D01*
X020618Y009471D01*
X020567Y009507D01*
X020514Y009541D01*
X020459Y009571D01*
X020403Y009598D01*
X020344Y009621D01*
X020285Y009640D01*
X020224Y009656D01*
X020162Y009668D01*
X020100Y009676D01*
X020037Y009680D01*
X019975Y009680D01*
X019912Y009676D01*
X019850Y009668D01*
X019788Y009656D01*
X019727Y009640D01*
X019668Y009621D01*
X019609Y009598D01*
X019553Y009571D01*
X019498Y009541D01*
X019445Y009507D01*
X019394Y009471D01*
X019345Y009431D01*
X019300Y009388D01*
X019257Y009342D01*
X019217Y009294D01*
X019180Y009243D01*
X019146Y009190D01*
X019116Y009135D01*
X019089Y009078D01*
X019066Y009020D01*
X019066Y008340D02*
X019089Y008282D01*
X019116Y008225D01*
X019146Y008170D01*
X019180Y008117D01*
X019217Y008066D01*
X019257Y008018D01*
X019300Y007972D01*
X019345Y007929D01*
X019394Y007889D01*
X019445Y007853D01*
X019498Y007819D01*
X019553Y007789D01*
X019609Y007762D01*
X019668Y007739D01*
X019727Y007720D01*
X019788Y007704D01*
X019850Y007692D01*
X019912Y007684D01*
X019975Y007680D01*
X020037Y007680D01*
X020100Y007684D01*
X020162Y007692D01*
X020224Y007704D01*
X020285Y007720D01*
X020344Y007739D01*
X020403Y007762D01*
X020459Y007789D01*
X020514Y007819D01*
X020567Y007853D01*
X020618Y007889D01*
X020667Y007929D01*
X020712Y007972D01*
X020755Y008018D01*
X020795Y008066D01*
X020832Y008117D01*
X020866Y008170D01*
X020896Y008225D01*
X020923Y008282D01*
X020946Y008340D01*
X020956Y006580D02*
X020956Y006430D01*
X020906Y006380D01*
X020906Y004480D01*
X020956Y004430D01*
X020956Y004280D01*
X020954Y004263D01*
X020950Y004246D01*
X020943Y004230D01*
X020933Y004216D01*
X020920Y004203D01*
X020906Y004193D01*
X020890Y004186D01*
X020873Y004182D01*
X020856Y004180D01*
X020156Y004180D02*
X020139Y004182D01*
X020122Y004186D01*
X020106Y004193D01*
X020092Y004203D01*
X020079Y004216D01*
X020069Y004230D01*
X020062Y004246D01*
X020058Y004263D01*
X020056Y004280D01*
X020056Y004430D01*
X020106Y004480D01*
X020106Y006380D01*
X020056Y006430D01*
X020056Y006580D01*
X019956Y006580D02*
X019956Y006430D01*
X019906Y006380D01*
X019906Y004480D01*
X019956Y004430D01*
X019956Y004280D01*
X019954Y004263D01*
X019950Y004246D01*
X019943Y004230D01*
X019933Y004216D01*
X019920Y004203D01*
X019906Y004193D01*
X019890Y004186D01*
X019873Y004182D01*
X019856Y004180D01*
X019156Y004180D02*
X019139Y004182D01*
X019122Y004186D01*
X019106Y004193D01*
X019092Y004203D01*
X019079Y004216D01*
X019069Y004230D01*
X019062Y004246D01*
X019058Y004263D01*
X019056Y004280D01*
X019056Y004430D01*
X019106Y004480D01*
X019106Y006380D01*
X019056Y006430D01*
X019056Y006580D01*
X019058Y006597D01*
X019062Y006614D01*
X019069Y006630D01*
X019079Y006644D01*
X019092Y006657D01*
X019106Y006667D01*
X019122Y006674D01*
X019139Y006678D01*
X019156Y006680D01*
X019856Y006680D02*
X019873Y006678D01*
X019890Y006674D01*
X019906Y006667D01*
X019920Y006657D01*
X019933Y006644D01*
X019943Y006630D01*
X019950Y006614D01*
X019954Y006597D01*
X019956Y006580D01*
X020056Y006580D02*
X020058Y006597D01*
X020062Y006614D01*
X020069Y006630D01*
X020079Y006644D01*
X020092Y006657D01*
X020106Y006667D01*
X020122Y006674D01*
X020139Y006678D01*
X020156Y006680D01*
X020856Y006680D02*
X020873Y006678D01*
X020890Y006674D01*
X020906Y006667D01*
X020920Y006657D01*
X020933Y006644D01*
X020943Y006630D01*
X020950Y006614D01*
X020954Y006597D01*
X020956Y006580D01*
X006643Y020530D02*
X005743Y020530D01*
X005856Y008880D02*
X005830Y008878D01*
X005804Y008873D01*
X005779Y008865D01*
X005756Y008853D01*
X005734Y008839D01*
X005715Y008821D01*
X005697Y008802D01*
X005683Y008780D01*
X005671Y008757D01*
X005663Y008732D01*
X005658Y008706D01*
X005656Y008680D01*
D13*
X006006Y009005D02*
X006156Y009005D01*
X006231Y009080D01*
X006392Y009005D02*
X006692Y009005D01*
X006542Y009005D02*
X006542Y009455D01*
X006392Y009305D01*
X006231Y009380D02*
X006156Y009455D01*
X006006Y009455D01*
X005931Y009380D01*
X005931Y009080D01*
X006006Y009005D01*
X008231Y006566D02*
X008681Y006566D01*
X008681Y006716D02*
X008681Y006415D01*
X008681Y006255D02*
X008531Y006105D01*
X008606Y005955D02*
X008306Y005955D01*
X008231Y006030D01*
X008231Y006180D01*
X008306Y006255D01*
X008606Y006255D01*
X008681Y006180D01*
X008681Y006030D01*
X008606Y005955D01*
X008381Y006415D02*
X008231Y006566D01*
X006442Y005630D02*
X006367Y005705D01*
X006217Y005705D01*
X006142Y005630D01*
X005981Y005630D02*
X005906Y005705D01*
X005756Y005705D01*
X005681Y005630D01*
X005681Y005330D01*
X005756Y005255D01*
X005906Y005255D01*
X005981Y005330D01*
X006142Y005255D02*
X006442Y005555D01*
X006442Y005630D01*
X006442Y005255D02*
X006142Y005255D01*
X011231Y005141D02*
X011231Y004990D01*
X011306Y004915D01*
X011306Y004755D02*
X011456Y004755D01*
X011531Y004680D01*
X011531Y004455D01*
X011531Y004605D02*
X011681Y004755D01*
X011681Y004915D02*
X011381Y005216D01*
X011306Y005216D01*
X011231Y005141D01*
X011306Y004755D02*
X011231Y004680D01*
X011231Y004455D01*
X011681Y004455D01*
X011681Y004915D02*
X011681Y005216D01*
X011681Y008455D02*
X011231Y008455D01*
X011231Y008680D01*
X011306Y008755D01*
X011456Y008755D01*
X011531Y008680D01*
X011531Y008455D01*
X011531Y008605D02*
X011681Y008755D01*
X011606Y008915D02*
X011681Y008990D01*
X011681Y009141D01*
X011606Y009216D01*
X011531Y009216D01*
X011456Y009141D01*
X011456Y008915D01*
X011606Y008915D01*
X011456Y008915D02*
X011306Y009066D01*
X011231Y009216D01*
X011242Y012605D02*
X011542Y012605D01*
X011702Y012605D02*
X011927Y012605D01*
X012002Y012680D01*
X012002Y012980D01*
X011927Y013055D01*
X011702Y013055D01*
X011702Y012605D01*
X011392Y012830D02*
X011242Y012830D01*
X011242Y013055D02*
X011242Y012605D01*
X011081Y012605D02*
X010781Y012605D01*
X010781Y013055D01*
X011242Y013055D02*
X011542Y013055D01*
X012162Y012905D02*
X012312Y013055D01*
X012312Y012605D01*
X012162Y012605D02*
X012463Y012605D01*
X010931Y015705D02*
X010481Y015705D01*
X010481Y015930D01*
X010556Y016005D01*
X010706Y016005D01*
X010781Y015930D01*
X010781Y015705D01*
X010781Y015855D02*
X010931Y016005D01*
X010856Y016165D02*
X010931Y016240D01*
X010931Y016391D01*
X010856Y016466D01*
X010781Y016466D01*
X010706Y016391D01*
X010706Y016316D01*
X010706Y016391D02*
X010631Y016466D01*
X010556Y016466D01*
X010481Y016391D01*
X010481Y016240D01*
X010556Y016165D01*
X007506Y016680D02*
X007552Y016724D01*
X007602Y016765D01*
X007653Y016803D01*
X007707Y016838D01*
X007763Y016869D01*
X007821Y016898D01*
X007880Y016922D01*
X007940Y016943D01*
X008002Y016960D01*
X008065Y016974D01*
X008128Y016983D01*
X008192Y016989D01*
X008256Y016991D01*
X008320Y016989D01*
X008384Y016983D01*
X008447Y016974D01*
X008510Y016960D01*
X008572Y016943D01*
X008632Y016922D01*
X008691Y016898D01*
X008749Y016869D01*
X008805Y016838D01*
X008859Y016803D01*
X008910Y016765D01*
X008960Y016724D01*
X009006Y016680D01*
X009050Y016634D01*
X009091Y016584D01*
X009129Y016533D01*
X009164Y016479D01*
X009195Y016423D01*
X009224Y016365D01*
X009248Y016306D01*
X009269Y016246D01*
X009286Y016184D01*
X009300Y016121D01*
X009309Y016058D01*
X009315Y015994D01*
X009317Y015930D01*
X009315Y015866D01*
X009309Y015802D01*
X009300Y015739D01*
X009286Y015676D01*
X009269Y015614D01*
X009248Y015554D01*
X009224Y015495D01*
X009195Y015437D01*
X009164Y015381D01*
X009129Y015327D01*
X009091Y015276D01*
X009050Y015226D01*
X009006Y015180D01*
X008960Y015136D01*
X008910Y015095D01*
X008859Y015057D01*
X008805Y015022D01*
X008749Y014991D01*
X008691Y014962D01*
X008632Y014938D01*
X008572Y014917D01*
X008510Y014900D01*
X008447Y014886D01*
X008384Y014877D01*
X008320Y014871D01*
X008256Y014869D01*
X008192Y014871D01*
X008128Y014877D01*
X008065Y014886D01*
X008002Y014900D01*
X007940Y014917D01*
X007880Y014938D01*
X007821Y014962D01*
X007763Y014991D01*
X007707Y015022D01*
X007653Y015057D01*
X007602Y015095D01*
X007552Y015136D01*
X007506Y015180D01*
X007506Y016680D01*
X008006Y016930D02*
X008006Y014930D01*
X007942Y013055D02*
X007642Y013055D01*
X007642Y012830D01*
X007792Y012905D01*
X007867Y012905D01*
X007942Y012830D01*
X007942Y012680D01*
X007867Y012605D01*
X007717Y012605D01*
X007642Y012680D01*
X007481Y012680D02*
X007406Y012605D01*
X007256Y012605D01*
X007181Y012680D01*
X007181Y012980D01*
X007256Y013055D01*
X007406Y013055D01*
X007481Y012980D01*
X004830Y012644D02*
X004530Y012644D01*
X004680Y012644D02*
X004680Y013094D01*
X004530Y012944D01*
X004370Y013019D02*
X004295Y013094D01*
X004069Y013094D01*
X004069Y012644D01*
X004295Y012644D01*
X004370Y012719D01*
X004370Y013019D01*
X009206Y019555D02*
X009356Y019555D01*
X009431Y019630D01*
X009592Y019630D02*
X009667Y019555D01*
X009817Y019555D01*
X009892Y019630D01*
X009892Y019705D01*
X009817Y019780D01*
X009592Y019780D01*
X009592Y019630D01*
X009592Y019780D02*
X009742Y019930D01*
X009892Y020005D01*
X009431Y019930D02*
X009356Y020005D01*
X009206Y020005D01*
X009131Y019930D01*
X009131Y019630D01*
X009206Y019555D01*
X009098Y020955D02*
X009098Y021180D01*
X009174Y021255D01*
X009249Y021255D01*
X009324Y021180D01*
X009324Y020955D01*
X008873Y020955D01*
X008873Y021180D01*
X008948Y021255D01*
X009023Y021255D01*
X009098Y021180D01*
X009249Y021415D02*
X008873Y021415D01*
X008873Y021716D02*
X009249Y021716D01*
X009324Y021641D01*
X009324Y021490D01*
X009249Y021415D01*
X008873Y021876D02*
X008873Y022176D01*
X008873Y022026D02*
X009324Y022026D01*
X009399Y022336D02*
X009399Y022636D01*
X009324Y022797D02*
X009324Y023022D01*
X009249Y023097D01*
X009174Y023097D01*
X009098Y023022D01*
X009098Y022797D01*
X008873Y022797D02*
X008873Y023022D01*
X008948Y023097D01*
X009023Y023097D01*
X009098Y023022D01*
X009324Y022797D02*
X008873Y022797D01*
X007943Y021205D02*
X008018Y021130D01*
X008018Y020980D01*
X007943Y020905D01*
X007793Y021055D02*
X007793Y021130D01*
X007868Y021205D01*
X007943Y021205D01*
X007793Y021130D02*
X007718Y021205D01*
X007643Y021205D01*
X007568Y021130D01*
X007568Y020980D01*
X007643Y020905D01*
X010323Y021055D02*
X010473Y020905D01*
X010323Y021055D02*
X010774Y021055D01*
X010774Y020905D02*
X010774Y021205D01*
X013473Y021130D02*
X013473Y020980D01*
X013548Y020905D01*
X013698Y021055D02*
X013698Y021130D01*
X013774Y021205D01*
X013849Y021205D01*
X013924Y021130D01*
X013924Y020980D01*
X013849Y020905D01*
X013698Y021130D02*
X013623Y021205D01*
X013548Y021205D01*
X013473Y021130D01*
X014779Y021180D02*
X014779Y020955D01*
X015229Y020955D01*
X015229Y021180D01*
X015154Y021255D01*
X015079Y021255D01*
X015004Y021180D01*
X015004Y020955D01*
X015004Y021180D02*
X014929Y021255D01*
X014854Y021255D01*
X014779Y021180D01*
X014779Y021415D02*
X015154Y021415D01*
X015229Y021490D01*
X015229Y021641D01*
X015154Y021716D01*
X014779Y021716D01*
X014779Y021876D02*
X014779Y022176D01*
X014779Y022026D02*
X015229Y022026D01*
X015304Y022336D02*
X015304Y022636D01*
X015229Y022797D02*
X014929Y022797D01*
X014779Y022947D01*
X014929Y023097D01*
X015229Y023097D01*
X015004Y023097D02*
X015004Y022797D01*
X016229Y021055D02*
X016679Y021055D01*
X016679Y020905D02*
X016679Y021205D01*
X016379Y020905D02*
X016229Y021055D01*
X016392Y018455D02*
X016242Y018305D01*
X016081Y018230D02*
X016006Y018155D01*
X015781Y018155D01*
X015781Y018005D02*
X015781Y018455D01*
X016006Y018455D01*
X016081Y018380D01*
X016081Y018230D01*
X015931Y018155D02*
X016081Y018005D01*
X016242Y018005D02*
X016542Y018005D01*
X016392Y018005D02*
X016392Y018455D01*
X018681Y017480D02*
X018681Y017180D01*
X018756Y017105D01*
X018906Y017105D01*
X018981Y017180D01*
X019142Y017180D02*
X019217Y017105D01*
X019367Y017105D01*
X019442Y017180D01*
X019442Y017255D01*
X019367Y017330D01*
X019292Y017330D01*
X019367Y017330D02*
X019442Y017405D01*
X019442Y017480D01*
X019367Y017555D01*
X019217Y017555D01*
X019142Y017480D01*
X018981Y017480D02*
X018906Y017555D01*
X018756Y017555D01*
X018681Y017480D01*
X020781Y017280D02*
X021006Y017055D01*
X021006Y017355D01*
X021231Y017280D02*
X020781Y017280D01*
X020306Y015045D02*
X020156Y015045D01*
X020156Y014895D01*
X020306Y015045D02*
X020381Y014970D01*
X020381Y014820D01*
X020306Y014745D01*
X020006Y014745D01*
X019931Y014820D01*
X019931Y014970D01*
X020006Y015045D01*
X020006Y014584D02*
X019931Y014509D01*
X019931Y014359D01*
X020006Y014284D01*
X020306Y014284D01*
X020381Y014359D01*
X020381Y014509D01*
X020306Y014584D01*
X020006Y014584D01*
X020006Y014124D02*
X020156Y014124D01*
X020231Y014049D01*
X020231Y013824D01*
X020231Y013974D02*
X020381Y014124D01*
X020381Y013824D02*
X019931Y013824D01*
X019931Y014049D01*
X020006Y014124D01*
X020006Y013664D02*
X019931Y013589D01*
X019931Y013363D01*
X020381Y013363D01*
X020231Y013363D02*
X020231Y013589D01*
X020156Y013664D01*
X020006Y013664D01*
X020781Y012655D02*
X021231Y012655D01*
X021231Y012505D02*
X021231Y012805D01*
X020931Y012505D02*
X020781Y012655D01*
X019617Y012305D02*
X019617Y011855D01*
X019692Y012080D02*
X019392Y012080D01*
X019617Y012305D01*
X019231Y012230D02*
X019156Y012305D01*
X019006Y012305D01*
X018931Y012230D01*
X018931Y011930D01*
X019006Y011855D01*
X019156Y011855D01*
X019231Y011930D01*
X020935Y007655D02*
X020860Y007580D01*
X020860Y007505D01*
X020935Y007430D01*
X021086Y007430D01*
X021161Y007355D01*
X021161Y007280D01*
X021086Y007205D01*
X020935Y007205D01*
X020860Y007280D01*
X020935Y007655D02*
X021086Y007655D01*
X021161Y007580D01*
X021321Y007655D02*
X021621Y007655D01*
X021471Y007655D02*
X021471Y007205D01*
X021456Y005295D02*
X021306Y005295D01*
X021231Y005220D01*
X021231Y005145D01*
X021306Y004995D01*
X021081Y004995D01*
X021081Y005295D01*
X021456Y005295D02*
X021531Y005220D01*
X021531Y005070D01*
X021456Y004995D01*
X021531Y004834D02*
X021381Y004684D01*
X021381Y004759D02*
X021381Y004534D01*
X021531Y004534D02*
X021081Y004534D01*
X021081Y004759D01*
X021156Y004834D01*
X021306Y004834D01*
X021381Y004759D01*
X018931Y004755D02*
X018781Y004605D01*
X018781Y004680D02*
X018781Y004455D01*
X018931Y004455D02*
X018481Y004455D01*
X018481Y004680D01*
X018556Y004755D01*
X018706Y004755D01*
X018781Y004680D01*
X018706Y004915D02*
X018706Y005216D01*
X018931Y005141D02*
X018481Y005141D01*
X018706Y004915D01*
X015849Y001515D02*
X015548Y001515D01*
X015699Y001515D02*
X015699Y001965D01*
X015548Y001815D01*
X015388Y001890D02*
X015313Y001965D01*
X015163Y001965D01*
X015088Y001890D01*
X015088Y001590D01*
X015163Y001515D01*
X015313Y001515D01*
X015388Y001590D01*
X014931Y001515D02*
X014781Y001515D01*
X014856Y001515D02*
X014856Y001965D01*
X014781Y001965D02*
X014931Y001965D01*
X019454Y020905D02*
X019379Y020980D01*
X019379Y021130D01*
X019454Y021205D01*
X019529Y021205D01*
X019604Y021130D01*
X019679Y021205D01*
X019754Y021205D01*
X019829Y021130D01*
X019829Y020980D01*
X019754Y020905D01*
X019604Y021055D02*
X019604Y021130D01*
X019604Y024555D02*
X019604Y024855D01*
X019829Y024780D02*
X019379Y024780D01*
X019604Y024555D01*
X016679Y024505D02*
X016379Y024805D01*
X016304Y024805D01*
X016229Y024730D01*
X016229Y024580D01*
X016304Y024505D01*
X016679Y024505D02*
X016679Y024805D01*
X013924Y024780D02*
X013473Y024780D01*
X013698Y024555D01*
X013698Y024855D01*
X010774Y024805D02*
X010774Y024505D01*
X010473Y024805D01*
X010398Y024805D01*
X010323Y024730D01*
X010323Y024580D01*
X010398Y024505D01*
X008018Y024780D02*
X007568Y024780D01*
X007793Y024555D01*
X007793Y024855D01*
X004868Y024805D02*
X004868Y024505D01*
X004568Y024805D01*
X004493Y024805D01*
X004418Y024730D01*
X004418Y024580D01*
X004493Y024505D01*
X003343Y023097D02*
X003418Y023022D01*
X003418Y022872D01*
X003343Y022797D01*
X003043Y022797D01*
X002968Y022872D01*
X002968Y023022D01*
X003043Y023097D01*
X003493Y022636D02*
X003493Y022336D01*
X003418Y022026D02*
X002968Y022026D01*
X002968Y021876D02*
X002968Y022176D01*
X002968Y021716D02*
X003343Y021716D01*
X003418Y021641D01*
X003418Y021490D01*
X003343Y021415D01*
X002968Y021415D01*
X003043Y021255D02*
X003118Y021255D01*
X003193Y021180D01*
X003193Y020955D01*
X003418Y020955D02*
X003418Y021180D01*
X003343Y021255D01*
X003268Y021255D01*
X003193Y021180D01*
X003043Y021255D02*
X002968Y021180D01*
X002968Y020955D01*
X003418Y020955D01*
X004418Y021055D02*
X004868Y021055D01*
X004868Y020905D02*
X004868Y021205D01*
X004568Y020905D02*
X004418Y021055D01*
D14*
X005543Y022280D02*
X006843Y022280D01*
X006843Y023580D01*
X005543Y023580D01*
X005543Y022280D01*
X005893Y022930D02*
X005895Y022964D01*
X005901Y022998D01*
X005910Y023031D01*
X005924Y023062D01*
X005941Y023092D01*
X005961Y023120D01*
X005984Y023145D01*
X006010Y023168D01*
X006038Y023187D01*
X006068Y023203D01*
X006100Y023215D01*
X006133Y023224D01*
X006167Y023229D01*
X006202Y023230D01*
X006236Y023227D01*
X006269Y023220D01*
X006302Y023210D01*
X006333Y023195D01*
X006362Y023178D01*
X006389Y023157D01*
X006414Y023133D01*
X006436Y023106D01*
X006454Y023078D01*
X006469Y023047D01*
X006481Y023015D01*
X006489Y022981D01*
X006493Y022947D01*
X006493Y022913D01*
X006489Y022879D01*
X006481Y022845D01*
X006469Y022813D01*
X006454Y022782D01*
X006436Y022754D01*
X006414Y022727D01*
X006389Y022703D01*
X006362Y022682D01*
X006333Y022665D01*
X006302Y022650D01*
X006269Y022640D01*
X006236Y022633D01*
X006202Y022630D01*
X006167Y022631D01*
X006133Y022636D01*
X006100Y022645D01*
X006068Y022657D01*
X006038Y022673D01*
X006010Y022692D01*
X005984Y022715D01*
X005961Y022740D01*
X005941Y022768D01*
X005924Y022798D01*
X005910Y022829D01*
X005901Y022862D01*
X005895Y022896D01*
X005893Y022930D01*
X005793Y022930D02*
X005795Y022970D01*
X005801Y023009D01*
X005811Y023048D01*
X005824Y023085D01*
X005842Y023121D01*
X005863Y023155D01*
X005887Y023187D01*
X005914Y023216D01*
X005944Y023243D01*
X005976Y023266D01*
X006011Y023286D01*
X006047Y023302D01*
X006085Y023315D01*
X006124Y023324D01*
X006163Y023329D01*
X006203Y023330D01*
X006243Y023327D01*
X006282Y023320D01*
X006320Y023309D01*
X006358Y023295D01*
X006393Y023276D01*
X006426Y023255D01*
X006458Y023230D01*
X006486Y023202D01*
X006512Y023172D01*
X006534Y023139D01*
X006553Y023104D01*
X006569Y023067D01*
X006581Y023029D01*
X006589Y022990D01*
X006593Y022950D01*
X006593Y022910D01*
X006589Y022870D01*
X006581Y022831D01*
X006569Y022793D01*
X006553Y022756D01*
X006534Y022721D01*
X006512Y022688D01*
X006486Y022658D01*
X006458Y022630D01*
X006426Y022605D01*
X006393Y022584D01*
X006358Y022565D01*
X006320Y022551D01*
X006282Y022540D01*
X006243Y022533D01*
X006203Y022530D01*
X006163Y022531D01*
X006124Y022536D01*
X006085Y022545D01*
X006047Y022558D01*
X006011Y022574D01*
X005976Y022594D01*
X005944Y022617D01*
X005914Y022644D01*
X005887Y022673D01*
X005863Y022705D01*
X005842Y022739D01*
X005824Y022775D01*
X005811Y022812D01*
X005801Y022851D01*
X005795Y022890D01*
X005793Y022930D01*
X011449Y022280D02*
X012749Y022280D01*
X012749Y023580D01*
X011449Y023580D01*
X011449Y022280D01*
X011799Y022930D02*
X011801Y022964D01*
X011807Y022998D01*
X011816Y023031D01*
X011830Y023062D01*
X011847Y023092D01*
X011867Y023120D01*
X011890Y023145D01*
X011916Y023168D01*
X011944Y023187D01*
X011974Y023203D01*
X012006Y023215D01*
X012039Y023224D01*
X012073Y023229D01*
X012108Y023230D01*
X012142Y023227D01*
X012175Y023220D01*
X012208Y023210D01*
X012239Y023195D01*
X012268Y023178D01*
X012295Y023157D01*
X012320Y023133D01*
X012342Y023106D01*
X012360Y023078D01*
X012375Y023047D01*
X012387Y023015D01*
X012395Y022981D01*
X012399Y022947D01*
X012399Y022913D01*
X012395Y022879D01*
X012387Y022845D01*
X012375Y022813D01*
X012360Y022782D01*
X012342Y022754D01*
X012320Y022727D01*
X012295Y022703D01*
X012268Y022682D01*
X012239Y022665D01*
X012208Y022650D01*
X012175Y022640D01*
X012142Y022633D01*
X012108Y022630D01*
X012073Y022631D01*
X012039Y022636D01*
X012006Y022645D01*
X011974Y022657D01*
X011944Y022673D01*
X011916Y022692D01*
X011890Y022715D01*
X011867Y022740D01*
X011847Y022768D01*
X011830Y022798D01*
X011816Y022829D01*
X011807Y022862D01*
X011801Y022896D01*
X011799Y022930D01*
X011699Y022930D02*
X011701Y022970D01*
X011707Y023009D01*
X011717Y023048D01*
X011730Y023085D01*
X011748Y023121D01*
X011769Y023155D01*
X011793Y023187D01*
X011820Y023216D01*
X011850Y023243D01*
X011882Y023266D01*
X011917Y023286D01*
X011953Y023302D01*
X011991Y023315D01*
X012030Y023324D01*
X012069Y023329D01*
X012109Y023330D01*
X012149Y023327D01*
X012188Y023320D01*
X012226Y023309D01*
X012264Y023295D01*
X012299Y023276D01*
X012332Y023255D01*
X012364Y023230D01*
X012392Y023202D01*
X012418Y023172D01*
X012440Y023139D01*
X012459Y023104D01*
X012475Y023067D01*
X012487Y023029D01*
X012495Y022990D01*
X012499Y022950D01*
X012499Y022910D01*
X012495Y022870D01*
X012487Y022831D01*
X012475Y022793D01*
X012459Y022756D01*
X012440Y022721D01*
X012418Y022688D01*
X012392Y022658D01*
X012364Y022630D01*
X012332Y022605D01*
X012299Y022584D01*
X012264Y022565D01*
X012226Y022551D01*
X012188Y022540D01*
X012149Y022533D01*
X012109Y022530D01*
X012069Y022531D01*
X012030Y022536D01*
X011991Y022545D01*
X011953Y022558D01*
X011917Y022574D01*
X011882Y022594D01*
X011850Y022617D01*
X011820Y022644D01*
X011793Y022673D01*
X011769Y022705D01*
X011748Y022739D01*
X011730Y022775D01*
X011717Y022812D01*
X011707Y022851D01*
X011701Y022890D01*
X011699Y022930D01*
X017354Y022280D02*
X018654Y022280D01*
X018654Y023580D01*
X017354Y023580D01*
X017354Y022280D01*
X017704Y022930D02*
X017706Y022964D01*
X017712Y022998D01*
X017721Y023031D01*
X017735Y023062D01*
X017752Y023092D01*
X017772Y023120D01*
X017795Y023145D01*
X017821Y023168D01*
X017849Y023187D01*
X017879Y023203D01*
X017911Y023215D01*
X017944Y023224D01*
X017978Y023229D01*
X018013Y023230D01*
X018047Y023227D01*
X018080Y023220D01*
X018113Y023210D01*
X018144Y023195D01*
X018173Y023178D01*
X018200Y023157D01*
X018225Y023133D01*
X018247Y023106D01*
X018265Y023078D01*
X018280Y023047D01*
X018292Y023015D01*
X018300Y022981D01*
X018304Y022947D01*
X018304Y022913D01*
X018300Y022879D01*
X018292Y022845D01*
X018280Y022813D01*
X018265Y022782D01*
X018247Y022754D01*
X018225Y022727D01*
X018200Y022703D01*
X018173Y022682D01*
X018144Y022665D01*
X018113Y022650D01*
X018080Y022640D01*
X018047Y022633D01*
X018013Y022630D01*
X017978Y022631D01*
X017944Y022636D01*
X017911Y022645D01*
X017879Y022657D01*
X017849Y022673D01*
X017821Y022692D01*
X017795Y022715D01*
X017772Y022740D01*
X017752Y022768D01*
X017735Y022798D01*
X017721Y022829D01*
X017712Y022862D01*
X017706Y022896D01*
X017704Y022930D01*
X017604Y022930D02*
X017606Y022970D01*
X017612Y023009D01*
X017622Y023048D01*
X017635Y023085D01*
X017653Y023121D01*
X017674Y023155D01*
X017698Y023187D01*
X017725Y023216D01*
X017755Y023243D01*
X017787Y023266D01*
X017822Y023286D01*
X017858Y023302D01*
X017896Y023315D01*
X017935Y023324D01*
X017974Y023329D01*
X018014Y023330D01*
X018054Y023327D01*
X018093Y023320D01*
X018131Y023309D01*
X018169Y023295D01*
X018204Y023276D01*
X018237Y023255D01*
X018269Y023230D01*
X018297Y023202D01*
X018323Y023172D01*
X018345Y023139D01*
X018364Y023104D01*
X018380Y023067D01*
X018392Y023029D01*
X018400Y022990D01*
X018404Y022950D01*
X018404Y022910D01*
X018400Y022870D01*
X018392Y022831D01*
X018380Y022793D01*
X018364Y022756D01*
X018345Y022721D01*
X018323Y022688D01*
X018297Y022658D01*
X018269Y022630D01*
X018237Y022605D01*
X018204Y022584D01*
X018169Y022565D01*
X018131Y022551D01*
X018093Y022540D01*
X018054Y022533D01*
X018014Y022530D01*
X017974Y022531D01*
X017935Y022536D01*
X017896Y022545D01*
X017858Y022558D01*
X017822Y022574D01*
X017787Y022594D01*
X017755Y022617D01*
X017725Y022644D01*
X017698Y022673D01*
X017674Y022705D01*
X017653Y022739D01*
X017635Y022775D01*
X017622Y022812D01*
X017612Y022851D01*
X017606Y022890D01*
X017604Y022930D01*
X010456Y008780D02*
X010456Y006080D01*
X010454Y006029D01*
X010449Y005978D01*
X010439Y005928D01*
X010426Y005878D01*
X010410Y005830D01*
X010390Y005783D01*
X010366Y005737D01*
X010340Y005694D01*
X010310Y005652D01*
X010277Y005613D01*
X010242Y005576D01*
X010204Y005542D01*
X010163Y005511D01*
X010121Y005482D01*
X010076Y005457D01*
X010030Y005436D01*
X009982Y005417D01*
X009933Y005403D01*
X009883Y005392D01*
X009833Y005384D01*
X009782Y005380D01*
X009730Y005380D01*
X009679Y005384D01*
X009629Y005392D01*
X009579Y005403D01*
X009530Y005417D01*
X009482Y005436D01*
X009436Y005457D01*
X009391Y005482D01*
X009349Y005511D01*
X009308Y005542D01*
X009270Y005576D01*
X009235Y005613D01*
X009202Y005652D01*
X009172Y005694D01*
X009146Y005737D01*
X009122Y005783D01*
X009102Y005830D01*
X009086Y005878D01*
X009073Y005928D01*
X009063Y005978D01*
X009058Y006029D01*
X009056Y006080D01*
X009056Y008780D01*
X009058Y008831D01*
X009063Y008882D01*
X009073Y008932D01*
X009086Y008982D01*
X009102Y009030D01*
X009122Y009077D01*
X009146Y009123D01*
X009172Y009166D01*
X009202Y009208D01*
X009235Y009247D01*
X009270Y009284D01*
X009308Y009318D01*
X009349Y009349D01*
X009391Y009378D01*
X009436Y009403D01*
X009482Y009424D01*
X009530Y009443D01*
X009579Y009457D01*
X009629Y009468D01*
X009679Y009476D01*
X009730Y009480D01*
X009782Y009480D01*
X009833Y009476D01*
X009883Y009468D01*
X009933Y009457D01*
X009982Y009443D01*
X010030Y009424D01*
X010076Y009403D01*
X010121Y009378D01*
X010163Y009349D01*
X010204Y009318D01*
X010242Y009284D01*
X010277Y009247D01*
X010310Y009208D01*
X010340Y009166D01*
X010366Y009123D01*
X010390Y009077D01*
X010410Y009030D01*
X010426Y008982D01*
X010439Y008932D01*
X010449Y008882D01*
X010454Y008831D01*
X010456Y008780D01*
D15*
X006636Y008730D02*
X006636Y008430D01*
X006636Y008130D01*
X006386Y008130D02*
X006386Y008430D01*
X006386Y008730D01*
X006386Y006730D02*
X006386Y006430D01*
X006386Y006130D01*
X006636Y006130D02*
X006636Y006430D01*
X006636Y006730D01*
X008386Y013430D02*
X008386Y013680D01*
X008386Y013930D01*
X008636Y013930D02*
X008636Y013680D01*
X008636Y013430D01*
X008636Y018430D02*
X008636Y018680D01*
X008636Y018930D01*
X008386Y018930D02*
X008386Y018680D01*
X008386Y018430D01*
X018756Y015560D02*
X019006Y015560D01*
X019256Y015560D01*
X019256Y015310D02*
X019006Y015310D01*
X018756Y015310D01*
X019886Y011430D02*
X019886Y011180D01*
X019886Y010930D01*
X020136Y010930D02*
X020136Y011180D01*
X020136Y011430D01*
D16*
X020404Y021605D03*
X020404Y024255D03*
X015604Y024255D03*
X014499Y024255D03*
X014499Y021605D03*
X015604Y021605D03*
X009699Y021605D03*
X008593Y021605D03*
X008593Y024255D03*
X009699Y024255D03*
X003793Y024255D03*
X003793Y021605D03*
D17*
X011109Y014625D02*
X011061Y014595D01*
X011016Y014562D01*
X010973Y014526D01*
X010932Y014488D01*
X010895Y014446D01*
X010860Y014402D01*
X010829Y014356D01*
X010800Y014307D01*
X010776Y014257D01*
X010755Y014205D01*
X010737Y014151D01*
X010724Y014097D01*
X010714Y014042D01*
X010708Y013986D01*
X010706Y013930D01*
X011882Y014636D02*
X011929Y014609D01*
X011974Y014579D01*
X012017Y014546D01*
X012057Y014510D01*
X012095Y014471D01*
X012130Y014430D01*
X012163Y014387D01*
X012192Y014342D01*
X012218Y014294D01*
X012241Y014245D01*
X012261Y014195D01*
X012277Y014144D01*
X012290Y014091D01*
X012299Y014038D01*
X012304Y013984D01*
X012306Y013930D01*
X010989Y013319D02*
X010950Y013355D01*
X010912Y013394D01*
X010878Y013434D01*
X010846Y013477D01*
X010818Y013522D01*
X010792Y013569D01*
X010769Y013618D01*
X010750Y013668D01*
X010734Y013719D01*
X010722Y013771D01*
X010713Y013823D01*
X010708Y013877D01*
X010706Y013930D01*
X012018Y013315D02*
X012058Y013351D01*
X012096Y013390D01*
X012131Y013431D01*
X012163Y013474D01*
X012193Y013519D01*
X012219Y013566D01*
X012241Y013615D01*
X012261Y013666D01*
X012277Y013717D01*
X012290Y013769D01*
X012299Y013823D01*
X012304Y013876D01*
X012306Y013930D01*
X019006Y009250D02*
X019006Y009030D01*
X019006Y008330D02*
X019006Y008110D01*
X019006Y009250D02*
X019041Y009307D01*
X019079Y009362D01*
X019120Y009415D01*
X019164Y009465D01*
X019211Y009513D01*
X019261Y009557D01*
X019313Y009599D01*
X019368Y009638D01*
X019424Y009673D01*
X019483Y009705D01*
X019543Y009734D01*
X019605Y009759D01*
X019669Y009780D01*
X019733Y009798D01*
X019798Y009812D01*
X019865Y009822D01*
X019931Y009829D01*
X019998Y009831D01*
X020065Y009830D01*
X020131Y009824D01*
X020198Y009815D01*
X020263Y009802D01*
X020328Y009785D01*
X020391Y009765D01*
X020454Y009740D01*
X020515Y009713D01*
X020574Y009681D01*
X020631Y009647D01*
X020686Y009609D01*
X020739Y009568D01*
X020789Y009524D01*
X020837Y009477D01*
X020882Y009427D01*
X020923Y009375D01*
X020962Y009321D01*
X020998Y009264D01*
X021030Y009205D01*
X021059Y009145D01*
X021084Y009083D01*
X021106Y009020D01*
X021106Y008340D02*
X021084Y008277D01*
X021059Y008215D01*
X021030Y008155D01*
X020998Y008096D01*
X020962Y008039D01*
X020923Y007985D01*
X020882Y007933D01*
X020837Y007883D01*
X020789Y007836D01*
X020739Y007792D01*
X020686Y007751D01*
X020631Y007713D01*
X020574Y007679D01*
X020515Y007647D01*
X020454Y007620D01*
X020392Y007595D01*
X020328Y007575D01*
X020263Y007558D01*
X020198Y007545D01*
X020131Y007536D01*
X020065Y007530D01*
X019998Y007529D01*
X019931Y007531D01*
X019864Y007538D01*
X019798Y007548D01*
X019733Y007562D01*
X019669Y007580D01*
X019605Y007601D01*
X019543Y007626D01*
X019483Y007655D01*
X019424Y007687D01*
X019368Y007722D01*
X019313Y007761D01*
X019261Y007803D01*
X019211Y007848D01*
X019164Y007895D01*
X019120Y007945D01*
X019079Y007998D01*
X019041Y008053D01*
X019006Y008110D01*
D18*
X011006Y012253D02*
X011006Y002607D01*
X010711Y002607D01*
X010711Y003591D01*
X002640Y003591D01*
X002640Y002607D01*
X010711Y002607D01*
X010711Y011269D02*
X002640Y011269D01*
X002640Y012253D01*
X010711Y012253D01*
X011006Y012253D01*
X010711Y012253D02*
X010711Y011269D01*
X005792Y015471D02*
X005162Y015471D01*
X005792Y015471D02*
X005792Y016101D01*
X005792Y018227D02*
X005792Y018857D01*
X000162Y018857D01*
X000162Y015471D01*
X003292Y015471D01*
X002640Y012253D02*
X000140Y009399D01*
X000140Y005461D01*
X002640Y002607D01*
D19*
X005215Y013619D03*
D20*
X005590Y013619D03*
X003540Y013619D03*
M02*
