%
M48
M72
T01C0.0236
T02C0.0240
T03C0.0315
T04C0.0320
T05C0.0400
T06C0.0470
T07C0.0710
T08C0.0866
T09C0.1102
T10C0.1260
%
T01
X13006Y7430
X15256Y11430
X16256Y12930
X18006Y14430
X15256Y18430
T02
X9756Y8430
X9756Y6430
T03
X3132Y3099
X3920Y3099
X4707Y3099
X5494Y3099
X6282Y3099
X7069Y3099
X7857Y3099
X8644Y3099
X9431Y3099
X10219Y3099
X10219Y11761
X9431Y11761
X8644Y11761
X7857Y11761
X7069Y11761
X6282Y11761
X5494Y11761
X4707Y11761
X3920Y11761
X3132Y11761
X8256Y14930
X8256Y15930
X8256Y16930
T04
X7506Y18680
X9506Y18680
X11506Y18430
X11506Y15430
X11506Y14430
X11506Y13430
X9506Y13680
X7506Y13680
X6065Y13619
X3065Y13619
X5506Y8430
X5506Y6430
X7506Y6430
X7506Y8430
X12256Y7930
X12256Y6930
X14256Y6930
X14256Y7930
X14256Y8930
X14256Y9930
X14256Y10930
X14256Y11930
X14256Y12930
X14256Y13930
X14256Y14930
X14256Y15930
X14256Y17430
X17256Y17430
X17256Y15930
X17256Y14930
X17256Y13930
X17256Y12930
X17256Y11930
X17256Y10930
X17256Y9930
X17256Y8930
X17256Y7930
X17256Y6930
X17256Y5930
X17256Y4930
X17256Y3930
X17256Y2930
X19506Y3930
X20506Y3930
X20506Y6930
X19506Y6930
X19006Y8680
X20006Y8680
X21006Y8680
X21006Y11180
X19006Y11180
X19006Y14430
X19006Y16430
X12256Y10930
X14256Y5930
X14256Y4930
X14256Y3930
X14256Y2930
X12256Y3930
T05
X21006Y13430
X21006Y14430
X21006Y15430
X21006Y16430
T06
X18984Y20470
X17024Y20470
X13079Y20470
X11119Y20470
X11119Y25390
X13079Y25390
X17024Y25390
X18984Y25390
X7173Y25390
X5213Y25390
X5213Y20470
X7173Y20470
T07
X7963Y22930
X10329Y22930
X13869Y22930
X16234Y22930
X19774Y22930
X4423Y22930
T08
X3075Y17164
X4256Y15274
T09
X5477Y17164
T10
X3240Y26127
X20957Y26127
X20957Y1702
X3240Y1505
M30
