G75*
%MOIN*%
%OFA0B0*%
%FSLAX24Y24*%
%IPPOS*%
%LPD*%
%AMOC8*
5,1,8,0,0,1.08239X$1,22.5*
%
%ADD10C,0.0000*%
%ADD11C,0.0040*%
%ADD12C,0.0060*%
%ADD13C,0.0050*%
%ADD14C,0.0020*%
%ADD15C,0.0120*%
%ADD16R,0.0200X0.0850*%
%ADD17R,0.0400X0.1250*%
%ADD18R,0.1050X0.0600*%
%ADD19C,0.0100*%
%ADD20C,0.0080*%
D10*
X001300Y002006D02*
X001300Y025752D01*
X025920Y025752D01*
X025920Y002006D01*
X001300Y002006D01*
X004675Y021756D02*
X004677Y021793D01*
X004683Y021830D01*
X004692Y021866D01*
X004706Y021900D01*
X004723Y021933D01*
X004743Y021965D01*
X004766Y021994D01*
X004792Y022020D01*
X004821Y022043D01*
X004852Y022063D01*
X004886Y022080D01*
X004920Y022094D01*
X004956Y022103D01*
X004993Y022109D01*
X005030Y022111D01*
X005067Y022109D01*
X005104Y022103D01*
X005140Y022094D01*
X005174Y022080D01*
X005207Y022063D01*
X005239Y022043D01*
X005268Y022020D01*
X005294Y021994D01*
X005317Y021965D01*
X005337Y021934D01*
X005354Y021900D01*
X005368Y021866D01*
X005377Y021830D01*
X005383Y021793D01*
X005385Y021756D01*
X005383Y021719D01*
X005377Y021682D01*
X005368Y021646D01*
X005354Y021612D01*
X005337Y021579D01*
X005317Y021547D01*
X005294Y021518D01*
X005268Y021492D01*
X005239Y021469D01*
X005208Y021449D01*
X005174Y021432D01*
X005140Y021418D01*
X005104Y021409D01*
X005067Y021403D01*
X005030Y021401D01*
X004993Y021403D01*
X004956Y021409D01*
X004920Y021418D01*
X004886Y021432D01*
X004853Y021449D01*
X004821Y021469D01*
X004792Y021492D01*
X004766Y021518D01*
X004743Y021547D01*
X004723Y021578D01*
X004706Y021612D01*
X004692Y021646D01*
X004683Y021682D01*
X004677Y021719D01*
X004675Y021756D01*
X008215Y021756D02*
X008217Y021793D01*
X008223Y021830D01*
X008232Y021866D01*
X008246Y021900D01*
X008263Y021933D01*
X008283Y021965D01*
X008306Y021994D01*
X008332Y022020D01*
X008361Y022043D01*
X008392Y022063D01*
X008426Y022080D01*
X008460Y022094D01*
X008496Y022103D01*
X008533Y022109D01*
X008570Y022111D01*
X008607Y022109D01*
X008644Y022103D01*
X008680Y022094D01*
X008714Y022080D01*
X008747Y022063D01*
X008779Y022043D01*
X008808Y022020D01*
X008834Y021994D01*
X008857Y021965D01*
X008877Y021934D01*
X008894Y021900D01*
X008908Y021866D01*
X008917Y021830D01*
X008923Y021793D01*
X008925Y021756D01*
X008923Y021719D01*
X008917Y021682D01*
X008908Y021646D01*
X008894Y021612D01*
X008877Y021579D01*
X008857Y021547D01*
X008834Y021518D01*
X008808Y021492D01*
X008779Y021469D01*
X008748Y021449D01*
X008714Y021432D01*
X008680Y021418D01*
X008644Y021409D01*
X008607Y021403D01*
X008570Y021401D01*
X008533Y021403D01*
X008496Y021409D01*
X008460Y021418D01*
X008426Y021432D01*
X008393Y021449D01*
X008361Y021469D01*
X008332Y021492D01*
X008306Y021518D01*
X008283Y021547D01*
X008263Y021578D01*
X008246Y021612D01*
X008232Y021646D01*
X008223Y021682D01*
X008217Y021719D01*
X008215Y021756D01*
X011675Y021756D02*
X011677Y021793D01*
X011683Y021830D01*
X011692Y021866D01*
X011706Y021900D01*
X011723Y021933D01*
X011743Y021965D01*
X011766Y021994D01*
X011792Y022020D01*
X011821Y022043D01*
X011852Y022063D01*
X011886Y022080D01*
X011920Y022094D01*
X011956Y022103D01*
X011993Y022109D01*
X012030Y022111D01*
X012067Y022109D01*
X012104Y022103D01*
X012140Y022094D01*
X012174Y022080D01*
X012207Y022063D01*
X012239Y022043D01*
X012268Y022020D01*
X012294Y021994D01*
X012317Y021965D01*
X012337Y021934D01*
X012354Y021900D01*
X012368Y021866D01*
X012377Y021830D01*
X012383Y021793D01*
X012385Y021756D01*
X012383Y021719D01*
X012377Y021682D01*
X012368Y021646D01*
X012354Y021612D01*
X012337Y021579D01*
X012317Y021547D01*
X012294Y021518D01*
X012268Y021492D01*
X012239Y021469D01*
X012208Y021449D01*
X012174Y021432D01*
X012140Y021418D01*
X012104Y021409D01*
X012067Y021403D01*
X012030Y021401D01*
X011993Y021403D01*
X011956Y021409D01*
X011920Y021418D01*
X011886Y021432D01*
X011853Y021449D01*
X011821Y021469D01*
X011792Y021492D01*
X011766Y021518D01*
X011743Y021547D01*
X011723Y021578D01*
X011706Y021612D01*
X011692Y021646D01*
X011683Y021682D01*
X011677Y021719D01*
X011675Y021756D01*
X015215Y021756D02*
X015217Y021793D01*
X015223Y021830D01*
X015232Y021866D01*
X015246Y021900D01*
X015263Y021933D01*
X015283Y021965D01*
X015306Y021994D01*
X015332Y022020D01*
X015361Y022043D01*
X015392Y022063D01*
X015426Y022080D01*
X015460Y022094D01*
X015496Y022103D01*
X015533Y022109D01*
X015570Y022111D01*
X015607Y022109D01*
X015644Y022103D01*
X015680Y022094D01*
X015714Y022080D01*
X015747Y022063D01*
X015779Y022043D01*
X015808Y022020D01*
X015834Y021994D01*
X015857Y021965D01*
X015877Y021934D01*
X015894Y021900D01*
X015908Y021866D01*
X015917Y021830D01*
X015923Y021793D01*
X015925Y021756D01*
X015923Y021719D01*
X015917Y021682D01*
X015908Y021646D01*
X015894Y021612D01*
X015877Y021579D01*
X015857Y021547D01*
X015834Y021518D01*
X015808Y021492D01*
X015779Y021469D01*
X015748Y021449D01*
X015714Y021432D01*
X015680Y021418D01*
X015644Y021409D01*
X015607Y021403D01*
X015570Y021401D01*
X015533Y021403D01*
X015496Y021409D01*
X015460Y021418D01*
X015426Y021432D01*
X015393Y021449D01*
X015361Y021469D01*
X015332Y021492D01*
X015306Y021518D01*
X015283Y021547D01*
X015263Y021578D01*
X015246Y021612D01*
X015232Y021646D01*
X015223Y021682D01*
X015217Y021719D01*
X015215Y021756D01*
X018675Y021756D02*
X018677Y021793D01*
X018683Y021830D01*
X018692Y021866D01*
X018706Y021900D01*
X018723Y021933D01*
X018743Y021965D01*
X018766Y021994D01*
X018792Y022020D01*
X018821Y022043D01*
X018852Y022063D01*
X018886Y022080D01*
X018920Y022094D01*
X018956Y022103D01*
X018993Y022109D01*
X019030Y022111D01*
X019067Y022109D01*
X019104Y022103D01*
X019140Y022094D01*
X019174Y022080D01*
X019207Y022063D01*
X019239Y022043D01*
X019268Y022020D01*
X019294Y021994D01*
X019317Y021965D01*
X019337Y021934D01*
X019354Y021900D01*
X019368Y021866D01*
X019377Y021830D01*
X019383Y021793D01*
X019385Y021756D01*
X019383Y021719D01*
X019377Y021682D01*
X019368Y021646D01*
X019354Y021612D01*
X019337Y021579D01*
X019317Y021547D01*
X019294Y021518D01*
X019268Y021492D01*
X019239Y021469D01*
X019208Y021449D01*
X019174Y021432D01*
X019140Y021418D01*
X019104Y021409D01*
X019067Y021403D01*
X019030Y021401D01*
X018993Y021403D01*
X018956Y021409D01*
X018920Y021418D01*
X018886Y021432D01*
X018853Y021449D01*
X018821Y021469D01*
X018792Y021492D01*
X018766Y021518D01*
X018743Y021547D01*
X018723Y021578D01*
X018706Y021612D01*
X018692Y021646D01*
X018683Y021682D01*
X018677Y021719D01*
X018675Y021756D01*
X022215Y021756D02*
X022217Y021793D01*
X022223Y021830D01*
X022232Y021866D01*
X022246Y021900D01*
X022263Y021933D01*
X022283Y021965D01*
X022306Y021994D01*
X022332Y022020D01*
X022361Y022043D01*
X022392Y022063D01*
X022426Y022080D01*
X022460Y022094D01*
X022496Y022103D01*
X022533Y022109D01*
X022570Y022111D01*
X022607Y022109D01*
X022644Y022103D01*
X022680Y022094D01*
X022714Y022080D01*
X022747Y022063D01*
X022779Y022043D01*
X022808Y022020D01*
X022834Y021994D01*
X022857Y021965D01*
X022877Y021934D01*
X022894Y021900D01*
X022908Y021866D01*
X022917Y021830D01*
X022923Y021793D01*
X022925Y021756D01*
X022923Y021719D01*
X022917Y021682D01*
X022908Y021646D01*
X022894Y021612D01*
X022877Y021579D01*
X022857Y021547D01*
X022834Y021518D01*
X022808Y021492D01*
X022779Y021469D01*
X022748Y021449D01*
X022714Y021432D01*
X022680Y021418D01*
X022644Y021409D01*
X022607Y021403D01*
X022570Y021401D01*
X022533Y021403D01*
X022496Y021409D01*
X022460Y021418D01*
X022426Y021432D01*
X022393Y021449D01*
X022361Y021469D01*
X022332Y021492D01*
X022306Y021518D01*
X022283Y021547D01*
X022263Y021578D01*
X022246Y021612D01*
X022232Y021646D01*
X022223Y021682D01*
X022217Y021719D01*
X022215Y021756D01*
D11*
X009513Y009487D02*
X009513Y009026D01*
X009360Y009026D02*
X009667Y009026D01*
X009206Y009103D02*
X009206Y009180D01*
X009129Y009256D01*
X008976Y009256D01*
X008899Y009333D01*
X008899Y009410D01*
X008976Y009487D01*
X009129Y009487D01*
X009206Y009410D01*
X009360Y009333D02*
X009513Y009487D01*
X009206Y009103D02*
X009129Y009026D01*
X008976Y009026D01*
X008899Y009103D01*
X008746Y009103D02*
X008746Y009487D01*
X008439Y009487D02*
X008439Y009103D01*
X008516Y009026D01*
X008669Y009026D01*
X008746Y009103D01*
X009053Y008949D02*
X009053Y009563D01*
X007703Y013776D02*
X007320Y013776D01*
X007320Y014083D02*
X007703Y014083D01*
X007780Y014006D01*
X007780Y013853D01*
X007703Y013776D01*
X007703Y014237D02*
X007780Y014313D01*
X007780Y014467D01*
X007703Y014543D01*
X007627Y014543D01*
X007550Y014467D01*
X007550Y014313D01*
X007473Y014237D01*
X007396Y014237D01*
X007320Y014313D01*
X007320Y014467D01*
X007396Y014543D01*
X007396Y014697D02*
X007320Y014774D01*
X007320Y014927D01*
X007396Y015004D01*
X007473Y015004D01*
X007780Y014697D01*
X007780Y015004D01*
X007857Y014390D02*
X007243Y014390D01*
X002933Y019368D02*
X002933Y019444D01*
X002857Y019521D01*
X002473Y019521D01*
X002320Y019521D02*
X002243Y019521D01*
X002030Y019368D02*
X001570Y019368D01*
X001570Y019598D01*
X001646Y019675D01*
X001800Y019675D01*
X001877Y019598D01*
X001877Y019368D01*
X001877Y019521D02*
X002030Y019675D01*
X001953Y019828D02*
X001800Y019828D01*
X001723Y019905D01*
X001723Y020058D01*
X001800Y020135D01*
X001877Y020135D01*
X001877Y019828D01*
X001953Y019828D02*
X002030Y019905D01*
X002030Y020058D01*
X002030Y020289D02*
X001723Y020289D01*
X001723Y020365D01*
X001800Y020442D01*
X001723Y020519D01*
X001800Y020595D01*
X002030Y020595D01*
X002030Y020442D02*
X001800Y020442D01*
X001800Y020749D02*
X001953Y020749D01*
X002030Y020826D01*
X002030Y020979D01*
X001953Y021056D01*
X001800Y021056D01*
X001723Y020979D01*
X001723Y020826D01*
X001800Y020749D01*
X001723Y021209D02*
X001723Y021363D01*
X001646Y021286D02*
X001953Y021286D01*
X002030Y021363D01*
X001953Y021516D02*
X001800Y021516D01*
X001723Y021593D01*
X001723Y021746D01*
X001800Y021823D01*
X001877Y021823D01*
X001877Y021516D01*
X001953Y021516D02*
X002030Y021593D01*
X002030Y021746D01*
X002320Y021823D02*
X002320Y021977D01*
X002396Y022053D01*
X002550Y022053D01*
X002627Y021977D01*
X002473Y021977D01*
X002473Y021823D01*
X002627Y021823D01*
X002627Y021977D01*
X002703Y022053D02*
X002780Y021977D01*
X002780Y021823D01*
X002703Y021746D01*
X002396Y021746D01*
X002320Y021823D01*
X002473Y021593D02*
X002780Y021286D01*
X002780Y021593D01*
X002473Y021593D02*
X002473Y021286D01*
X002473Y021056D02*
X002780Y021056D01*
X002780Y020979D02*
X002780Y021133D01*
X002780Y020826D02*
X002473Y020826D01*
X002473Y020979D02*
X002473Y021056D01*
X002320Y021056D02*
X002243Y021056D01*
X002780Y020826D02*
X002780Y020595D01*
X002703Y020519D01*
X002473Y020519D01*
X002473Y020365D02*
X002473Y020289D01*
X002627Y020135D01*
X002780Y020135D02*
X002473Y020135D01*
X002550Y019982D02*
X002473Y019905D01*
X002473Y019751D01*
X002550Y019675D01*
X002703Y019675D01*
X002780Y019751D01*
X002780Y019905D01*
X002703Y019982D01*
X002550Y019982D01*
X002396Y022207D02*
X002320Y022284D01*
X002320Y022437D01*
X002396Y022514D01*
X002473Y022514D01*
X002780Y022207D01*
X002780Y022514D01*
X002703Y022667D02*
X002396Y022974D01*
X002703Y022974D01*
X002780Y022897D01*
X002780Y022744D01*
X002703Y022667D01*
X002396Y022667D01*
X002320Y022744D01*
X002320Y022897D01*
X002396Y022974D01*
X002473Y023128D02*
X002320Y023281D01*
X002780Y023281D01*
X002780Y023128D02*
X002780Y023435D01*
X002703Y023588D02*
X002780Y023665D01*
X002780Y023818D01*
X002703Y023895D01*
X002627Y023895D01*
X002550Y023818D01*
X002550Y023741D01*
X002550Y023818D02*
X002473Y023895D01*
X002396Y023895D01*
X002320Y023818D01*
X002320Y023665D01*
X002396Y023588D01*
X002030Y023665D02*
X001800Y023665D01*
X001723Y023588D01*
X001723Y023358D01*
X002030Y023358D01*
X001953Y023204D02*
X001800Y023204D01*
X001723Y023128D01*
X001723Y022974D01*
X001800Y022897D01*
X001953Y022897D01*
X002030Y022974D01*
X002030Y023128D01*
X001953Y023204D01*
X001953Y022744D02*
X002030Y022667D01*
X002030Y022514D01*
X001953Y022437D01*
X001646Y022437D01*
X001570Y022514D01*
X001570Y022667D01*
X001646Y022744D01*
X001723Y023818D02*
X001723Y023972D01*
X001646Y023895D02*
X001953Y023895D01*
X002030Y023972D01*
X002030Y024125D02*
X001723Y024125D01*
X001877Y024125D02*
X001723Y024279D01*
X001723Y024355D01*
X001800Y024509D02*
X001953Y024509D01*
X002030Y024586D01*
X002030Y024739D01*
X001953Y024816D01*
X001800Y024816D01*
X001723Y024739D01*
X001723Y024586D01*
X001800Y024509D01*
X002030Y024969D02*
X002030Y025123D01*
X002030Y025046D02*
X001570Y025046D01*
X001570Y024969D01*
X000934Y014237D02*
X000934Y013776D01*
X001087Y013776D02*
X000780Y013776D01*
X000550Y013853D02*
X000550Y014237D01*
X000473Y014237D02*
X000627Y014237D01*
X000780Y014083D02*
X000934Y014237D01*
X000550Y013853D02*
X000473Y013776D01*
X000397Y013776D01*
X000320Y013853D01*
D12*
X002330Y014143D02*
X002437Y014036D01*
X002650Y014036D01*
X002757Y014143D01*
X002757Y014250D01*
X002650Y014356D01*
X002437Y014356D01*
X002330Y014463D01*
X002330Y014570D01*
X002437Y014677D01*
X002650Y014677D01*
X002757Y014570D01*
X002975Y014356D02*
X003402Y014356D01*
X003295Y014036D02*
X003295Y014677D01*
X002975Y014356D01*
X007350Y013156D02*
X007350Y012356D01*
X007352Y012339D01*
X007356Y012322D01*
X007363Y012306D01*
X007373Y012292D01*
X007386Y012279D01*
X007400Y012269D01*
X007416Y012262D01*
X007433Y012258D01*
X007450Y012256D01*
X010150Y012256D01*
X010167Y012258D01*
X010184Y012262D01*
X010200Y012269D01*
X010214Y012279D01*
X010227Y012292D01*
X010237Y012306D01*
X010244Y012322D01*
X010248Y012339D01*
X010250Y012356D01*
X010250Y013156D01*
X010248Y013173D01*
X010244Y013190D01*
X010237Y013206D01*
X010227Y013220D01*
X010214Y013233D01*
X010200Y013243D01*
X010184Y013250D01*
X010167Y013254D01*
X010150Y013256D01*
X007450Y013256D01*
X007433Y013254D01*
X007416Y013250D01*
X007400Y013243D01*
X007386Y013233D01*
X007373Y013220D01*
X007363Y013206D01*
X007356Y013190D01*
X007352Y013173D01*
X007350Y013156D01*
X008200Y012756D02*
X008680Y012756D01*
X008930Y012756D02*
X009400Y012756D01*
X011600Y011156D02*
X011600Y009856D01*
X011602Y009830D01*
X011607Y009804D01*
X011615Y009779D01*
X011627Y009756D01*
X011641Y009734D01*
X011659Y009715D01*
X011678Y009697D01*
X011700Y009683D01*
X011723Y009671D01*
X011748Y009663D01*
X011774Y009658D01*
X011800Y009656D01*
X012050Y010006D02*
X012050Y010376D01*
X012050Y010626D02*
X012050Y011006D01*
X011800Y011356D02*
X011774Y011354D01*
X011748Y011349D01*
X011723Y011341D01*
X011700Y011329D01*
X011678Y011315D01*
X011659Y011297D01*
X011641Y011278D01*
X011627Y011256D01*
X011615Y011233D01*
X011607Y011208D01*
X011602Y011182D01*
X011600Y011156D01*
X012300Y011356D02*
X012326Y011354D01*
X012352Y011349D01*
X012377Y011341D01*
X012400Y011329D01*
X012422Y011315D01*
X012441Y011297D01*
X012459Y011278D01*
X012473Y011256D01*
X012485Y011233D01*
X012493Y011208D01*
X012498Y011182D01*
X012500Y011156D01*
X012500Y009856D01*
X012650Y009856D02*
X012650Y007156D01*
X012500Y007156D02*
X012500Y005856D01*
X012498Y005830D01*
X012493Y005804D01*
X012485Y005779D01*
X012473Y005756D01*
X012459Y005734D01*
X012441Y005715D01*
X012422Y005697D01*
X012400Y005683D01*
X012377Y005671D01*
X012352Y005663D01*
X012326Y005658D01*
X012300Y005656D01*
X011800Y005656D02*
X011774Y005658D01*
X011748Y005663D01*
X011723Y005671D01*
X011700Y005683D01*
X011678Y005697D01*
X011659Y005715D01*
X011641Y005734D01*
X011627Y005756D01*
X011615Y005779D01*
X011607Y005804D01*
X011602Y005830D01*
X011600Y005856D01*
X011600Y007156D01*
X011602Y007182D01*
X011607Y007208D01*
X011615Y007233D01*
X011627Y007256D01*
X011641Y007278D01*
X011659Y007297D01*
X011678Y007315D01*
X011700Y007329D01*
X011723Y007341D01*
X011748Y007349D01*
X011774Y007354D01*
X011800Y007356D01*
X012050Y007006D02*
X012050Y006636D01*
X012050Y006386D02*
X012050Y006006D01*
X012500Y007156D02*
X012498Y007182D01*
X012493Y007208D01*
X012485Y007233D01*
X012473Y007256D01*
X012459Y007278D01*
X012441Y007297D01*
X012422Y007315D01*
X012400Y007329D01*
X012377Y007341D01*
X012352Y007349D01*
X012326Y007354D01*
X012300Y007356D01*
X012650Y007156D02*
X012652Y007097D01*
X012658Y007039D01*
X012667Y006980D01*
X012681Y006923D01*
X012698Y006867D01*
X012719Y006812D01*
X012743Y006758D01*
X012771Y006706D01*
X012802Y006656D01*
X012836Y006608D01*
X012873Y006563D01*
X012914Y006520D01*
X012957Y006479D01*
X013002Y006442D01*
X013050Y006408D01*
X013100Y006377D01*
X013152Y006349D01*
X013206Y006325D01*
X013261Y006304D01*
X013317Y006287D01*
X013374Y006273D01*
X013433Y006264D01*
X013491Y006258D01*
X013550Y006256D01*
X013609Y006258D01*
X013667Y006264D01*
X013726Y006273D01*
X013783Y006287D01*
X013839Y006304D01*
X013894Y006325D01*
X013948Y006349D01*
X014000Y006377D01*
X014050Y006408D01*
X014098Y006442D01*
X014143Y006479D01*
X014186Y006520D01*
X014227Y006563D01*
X014264Y006608D01*
X014298Y006656D01*
X014329Y006706D01*
X014357Y006758D01*
X014381Y006812D01*
X014402Y006867D01*
X014419Y006923D01*
X014433Y006980D01*
X014442Y007039D01*
X014448Y007097D01*
X014450Y007156D01*
X014450Y009856D01*
X014448Y009915D01*
X014442Y009973D01*
X014433Y010032D01*
X014419Y010089D01*
X014402Y010145D01*
X014381Y010200D01*
X014357Y010254D01*
X014329Y010306D01*
X014298Y010356D01*
X014264Y010404D01*
X014227Y010449D01*
X014186Y010492D01*
X014143Y010533D01*
X014098Y010570D01*
X014050Y010604D01*
X014000Y010635D01*
X013948Y010663D01*
X013894Y010687D01*
X013839Y010708D01*
X013783Y010725D01*
X013726Y010739D01*
X013667Y010748D01*
X013609Y010754D01*
X013550Y010756D01*
X013491Y010754D01*
X013433Y010748D01*
X013374Y010739D01*
X013317Y010725D01*
X013261Y010708D01*
X013206Y010687D01*
X013152Y010663D01*
X013100Y010635D01*
X013050Y010604D01*
X013002Y010570D01*
X012957Y010533D01*
X012914Y010492D01*
X012873Y010449D01*
X012836Y010404D01*
X012802Y010356D01*
X012771Y010306D01*
X012743Y010254D01*
X012719Y010200D01*
X012698Y010145D01*
X012681Y010089D01*
X012667Y010032D01*
X012658Y009973D01*
X012652Y009915D01*
X012650Y009856D01*
X012500Y009856D02*
X012498Y009830D01*
X012493Y009804D01*
X012485Y009779D01*
X012473Y009756D01*
X012459Y009734D01*
X012441Y009715D01*
X012422Y009697D01*
X012400Y009683D01*
X012377Y009671D01*
X012352Y009663D01*
X012326Y009658D01*
X012300Y009656D01*
X011450Y013256D02*
X011452Y013301D01*
X011457Y013347D01*
X011465Y013391D01*
X011477Y013435D01*
X011493Y013478D01*
X011511Y013520D01*
X011533Y013560D01*
X011557Y013598D01*
X011584Y013634D01*
X011614Y013669D01*
X011647Y013700D01*
X011682Y013730D01*
X012650Y013256D02*
X012648Y013209D01*
X012642Y013161D01*
X012633Y013115D01*
X012620Y013069D01*
X012604Y013025D01*
X012583Y012981D01*
X012560Y012940D01*
X012534Y012901D01*
X012504Y012864D01*
X012471Y012829D01*
X012436Y012797D01*
X012399Y012768D01*
X012650Y013256D02*
X012648Y013302D01*
X012643Y013348D01*
X012634Y013394D01*
X012622Y013439D01*
X012606Y013482D01*
X012587Y013524D01*
X012564Y013565D01*
X012539Y013604D01*
X012511Y013640D01*
X012480Y013675D01*
X012446Y013707D01*
X012410Y013736D01*
X011450Y013256D02*
X011452Y013211D01*
X011457Y013165D01*
X011465Y013121D01*
X011477Y013077D01*
X011493Y013034D01*
X011511Y012992D01*
X011533Y012952D01*
X011557Y012914D01*
X011584Y012878D01*
X011614Y012843D01*
X011647Y012812D01*
X011682Y012782D01*
X011700Y014756D02*
X011683Y014758D01*
X011666Y014762D01*
X011650Y014769D01*
X011636Y014779D01*
X011623Y014792D01*
X011613Y014806D01*
X011606Y014822D01*
X011602Y014839D01*
X011600Y014856D01*
X011600Y015006D01*
X011650Y015056D01*
X011650Y016956D01*
X011600Y017006D01*
X011600Y017156D01*
X011602Y017173D01*
X011606Y017190D01*
X011613Y017206D01*
X011623Y017220D01*
X011636Y017233D01*
X011650Y017243D01*
X011666Y017250D01*
X011683Y017254D01*
X011700Y017256D01*
X012400Y017256D02*
X012417Y017254D01*
X012434Y017250D01*
X012450Y017243D01*
X012464Y017233D01*
X012477Y017220D01*
X012487Y017206D01*
X012494Y017190D01*
X012498Y017173D01*
X012500Y017156D01*
X012500Y017006D01*
X012450Y016956D01*
X012450Y015056D01*
X012500Y015006D01*
X012500Y014856D01*
X012498Y014839D01*
X012494Y014822D01*
X012487Y014806D01*
X012477Y014792D01*
X012464Y014779D01*
X012450Y014769D01*
X012434Y014762D01*
X012417Y014758D01*
X012400Y014756D01*
X012850Y014856D02*
X012850Y015006D01*
X012900Y015056D01*
X012900Y016956D01*
X012850Y017006D01*
X012850Y017156D01*
X012852Y017173D01*
X012856Y017190D01*
X012863Y017206D01*
X012873Y017220D01*
X012886Y017233D01*
X012900Y017243D01*
X012916Y017250D01*
X012933Y017254D01*
X012950Y017256D01*
X013650Y017256D02*
X013667Y017254D01*
X013684Y017250D01*
X013700Y017243D01*
X013714Y017233D01*
X013727Y017220D01*
X013737Y017206D01*
X013744Y017190D01*
X013748Y017173D01*
X013750Y017156D01*
X013750Y017006D01*
X013700Y016956D01*
X013700Y015056D01*
X013750Y015006D01*
X013750Y014856D01*
X013748Y014839D01*
X013744Y014822D01*
X013737Y014806D01*
X013727Y014792D01*
X013714Y014779D01*
X013700Y014769D01*
X013684Y014762D01*
X013667Y014758D01*
X013650Y014756D01*
X012950Y014756D02*
X012933Y014758D01*
X012916Y014762D01*
X012900Y014769D01*
X012886Y014779D01*
X012873Y014792D01*
X012863Y014806D01*
X012856Y014822D01*
X012852Y014839D01*
X012850Y014856D01*
X010250Y016656D02*
X010250Y017856D01*
X010248Y017873D01*
X010244Y017890D01*
X010237Y017906D01*
X010227Y017920D01*
X010214Y017933D01*
X010200Y017943D01*
X010184Y017950D01*
X010167Y017954D01*
X010150Y017956D01*
X007450Y017956D01*
X007433Y017954D01*
X007416Y017950D01*
X007400Y017943D01*
X007386Y017933D01*
X007373Y017920D01*
X007363Y017906D01*
X007356Y017890D01*
X007352Y017873D01*
X007350Y017856D01*
X007350Y016656D01*
X007352Y016639D01*
X007356Y016622D01*
X007363Y016606D01*
X007373Y016592D01*
X007386Y016579D01*
X007400Y016569D01*
X007416Y016562D01*
X007433Y016558D01*
X007450Y016556D01*
X010150Y016556D01*
X010167Y016558D01*
X010184Y016562D01*
X010200Y016569D01*
X010214Y016579D01*
X010227Y016592D01*
X010237Y016606D01*
X010244Y016622D01*
X010248Y016639D01*
X010250Y016656D01*
X009400Y017256D02*
X008930Y017256D01*
X008680Y017256D02*
X008200Y017256D01*
X008300Y019356D02*
X008800Y019356D01*
X009200Y019756D01*
X009300Y019856D01*
X009300Y021056D01*
X009200Y021056D01*
X009200Y021356D01*
X009200Y022156D01*
X009200Y022456D01*
X009200Y023756D01*
X009300Y023656D01*
X009300Y022456D01*
X009200Y022456D01*
X009200Y022156D02*
X009350Y022156D01*
X009350Y021356D01*
X009200Y021356D01*
X009200Y021056D02*
X009200Y019756D01*
X007550Y021006D02*
X006050Y021006D01*
X006050Y022506D01*
X007550Y022506D01*
X007550Y021006D01*
X005400Y021756D02*
X005402Y021831D01*
X005408Y021905D01*
X005418Y021979D01*
X005432Y022052D01*
X005449Y022124D01*
X005471Y022196D01*
X005496Y022266D01*
X005525Y022334D01*
X005558Y022402D01*
X005594Y022467D01*
X005633Y022530D01*
X005676Y022591D01*
X005722Y022650D01*
X005771Y022706D01*
X005823Y022759D01*
X005878Y022810D01*
X005935Y022857D01*
X005995Y022902D01*
X006057Y022943D01*
X006122Y022981D01*
X006188Y023015D01*
X006256Y023046D01*
X006325Y023073D01*
X006396Y023096D01*
X006468Y023116D01*
X006541Y023132D01*
X006614Y023144D01*
X006688Y023152D01*
X006763Y023156D01*
X006837Y023156D01*
X006912Y023152D01*
X006986Y023144D01*
X007059Y023132D01*
X007132Y023116D01*
X007204Y023096D01*
X007275Y023073D01*
X007344Y023046D01*
X007412Y023015D01*
X007478Y022981D01*
X007543Y022943D01*
X007605Y022902D01*
X007665Y022857D01*
X007722Y022810D01*
X007777Y022759D01*
X007829Y022706D01*
X007878Y022650D01*
X007924Y022591D01*
X007967Y022530D01*
X008006Y022467D01*
X008042Y022402D01*
X008075Y022334D01*
X008104Y022266D01*
X008129Y022196D01*
X008151Y022124D01*
X008168Y022052D01*
X008182Y021979D01*
X008192Y021905D01*
X008198Y021831D01*
X008200Y021756D01*
X008198Y021681D01*
X008192Y021607D01*
X008182Y021533D01*
X008168Y021460D01*
X008151Y021388D01*
X008129Y021316D01*
X008104Y021246D01*
X008075Y021178D01*
X008042Y021110D01*
X008006Y021045D01*
X007967Y020982D01*
X007924Y020921D01*
X007878Y020862D01*
X007829Y020806D01*
X007777Y020753D01*
X007722Y020702D01*
X007665Y020655D01*
X007605Y020610D01*
X007543Y020569D01*
X007478Y020531D01*
X007412Y020497D01*
X007344Y020466D01*
X007275Y020439D01*
X007204Y020416D01*
X007132Y020396D01*
X007059Y020380D01*
X006986Y020368D01*
X006912Y020360D01*
X006837Y020356D01*
X006763Y020356D01*
X006688Y020360D01*
X006614Y020368D01*
X006541Y020380D01*
X006468Y020396D01*
X006396Y020416D01*
X006325Y020439D01*
X006256Y020466D01*
X006188Y020497D01*
X006122Y020531D01*
X006057Y020569D01*
X005995Y020610D01*
X005935Y020655D01*
X005878Y020702D01*
X005823Y020753D01*
X005771Y020806D01*
X005722Y020862D01*
X005676Y020921D01*
X005633Y020982D01*
X005594Y021045D01*
X005558Y021110D01*
X005525Y021178D01*
X005496Y021246D01*
X005471Y021316D01*
X005449Y021388D01*
X005432Y021460D01*
X005418Y021533D01*
X005408Y021607D01*
X005402Y021681D01*
X005400Y021756D01*
X004400Y021356D02*
X004400Y021056D01*
X004300Y021056D01*
X004300Y019856D01*
X004400Y019756D01*
X004800Y019356D01*
X005300Y019356D01*
X004400Y019756D02*
X004400Y021056D01*
X004400Y021356D02*
X004400Y022156D01*
X004400Y022456D01*
X004300Y022456D01*
X004300Y023656D01*
X004400Y023756D01*
X004400Y022456D01*
X004400Y022156D02*
X004250Y022156D01*
X004250Y021356D01*
X004400Y021356D01*
X006350Y019356D02*
X007250Y019356D01*
X011250Y021356D02*
X011250Y022156D01*
X011400Y022156D01*
X011400Y022456D01*
X011300Y022456D01*
X011300Y023656D01*
X011400Y023756D01*
X011400Y022456D01*
X011400Y022156D02*
X011400Y021356D01*
X011400Y021056D01*
X011300Y021056D01*
X011300Y019856D01*
X011400Y019756D01*
X011800Y019356D01*
X012300Y019356D01*
X011400Y019756D02*
X011400Y021056D01*
X011400Y021356D02*
X011250Y021356D01*
X013050Y021006D02*
X014550Y021006D01*
X014550Y022506D01*
X013050Y022506D01*
X013050Y021006D01*
X012400Y021756D02*
X012402Y021831D01*
X012408Y021905D01*
X012418Y021979D01*
X012432Y022052D01*
X012449Y022124D01*
X012471Y022196D01*
X012496Y022266D01*
X012525Y022334D01*
X012558Y022402D01*
X012594Y022467D01*
X012633Y022530D01*
X012676Y022591D01*
X012722Y022650D01*
X012771Y022706D01*
X012823Y022759D01*
X012878Y022810D01*
X012935Y022857D01*
X012995Y022902D01*
X013057Y022943D01*
X013122Y022981D01*
X013188Y023015D01*
X013256Y023046D01*
X013325Y023073D01*
X013396Y023096D01*
X013468Y023116D01*
X013541Y023132D01*
X013614Y023144D01*
X013688Y023152D01*
X013763Y023156D01*
X013837Y023156D01*
X013912Y023152D01*
X013986Y023144D01*
X014059Y023132D01*
X014132Y023116D01*
X014204Y023096D01*
X014275Y023073D01*
X014344Y023046D01*
X014412Y023015D01*
X014478Y022981D01*
X014543Y022943D01*
X014605Y022902D01*
X014665Y022857D01*
X014722Y022810D01*
X014777Y022759D01*
X014829Y022706D01*
X014878Y022650D01*
X014924Y022591D01*
X014967Y022530D01*
X015006Y022467D01*
X015042Y022402D01*
X015075Y022334D01*
X015104Y022266D01*
X015129Y022196D01*
X015151Y022124D01*
X015168Y022052D01*
X015182Y021979D01*
X015192Y021905D01*
X015198Y021831D01*
X015200Y021756D01*
X015198Y021681D01*
X015192Y021607D01*
X015182Y021533D01*
X015168Y021460D01*
X015151Y021388D01*
X015129Y021316D01*
X015104Y021246D01*
X015075Y021178D01*
X015042Y021110D01*
X015006Y021045D01*
X014967Y020982D01*
X014924Y020921D01*
X014878Y020862D01*
X014829Y020806D01*
X014777Y020753D01*
X014722Y020702D01*
X014665Y020655D01*
X014605Y020610D01*
X014543Y020569D01*
X014478Y020531D01*
X014412Y020497D01*
X014344Y020466D01*
X014275Y020439D01*
X014204Y020416D01*
X014132Y020396D01*
X014059Y020380D01*
X013986Y020368D01*
X013912Y020360D01*
X013837Y020356D01*
X013763Y020356D01*
X013688Y020360D01*
X013614Y020368D01*
X013541Y020380D01*
X013468Y020396D01*
X013396Y020416D01*
X013325Y020439D01*
X013256Y020466D01*
X013188Y020497D01*
X013122Y020531D01*
X013057Y020569D01*
X012995Y020610D01*
X012935Y020655D01*
X012878Y020702D01*
X012823Y020753D01*
X012771Y020806D01*
X012722Y020862D01*
X012676Y020921D01*
X012633Y020982D01*
X012594Y021045D01*
X012558Y021110D01*
X012525Y021178D01*
X012496Y021246D01*
X012471Y021316D01*
X012449Y021388D01*
X012432Y021460D01*
X012418Y021533D01*
X012408Y021607D01*
X012402Y021681D01*
X012400Y021756D01*
X011400Y023756D02*
X011800Y024156D01*
X012300Y024156D01*
X013350Y024156D02*
X014250Y024156D01*
X015300Y024156D02*
X015800Y024156D01*
X016200Y023756D01*
X016300Y023656D01*
X016300Y022456D01*
X016200Y022456D01*
X016200Y023756D01*
X016200Y022456D02*
X016200Y022156D01*
X016200Y021356D01*
X016200Y021056D01*
X016300Y021056D01*
X016300Y019856D01*
X016200Y019756D01*
X016200Y021056D01*
X016200Y021356D02*
X016350Y021356D01*
X016350Y022156D01*
X016200Y022156D01*
X018250Y022156D02*
X018250Y021356D01*
X018400Y021356D01*
X018400Y021056D01*
X018300Y021056D01*
X018300Y019856D01*
X018400Y019756D01*
X018800Y019356D01*
X019300Y019356D01*
X018400Y019756D02*
X018400Y021056D01*
X018400Y021356D02*
X018400Y022156D01*
X018400Y022456D01*
X018300Y022456D01*
X018300Y023656D01*
X018400Y023756D01*
X018400Y022456D01*
X018400Y022156D02*
X018250Y022156D01*
X018400Y023756D02*
X018800Y024156D01*
X019300Y024156D01*
X020350Y024156D02*
X021250Y024156D01*
X022300Y024156D02*
X022800Y024156D01*
X023200Y023756D01*
X023300Y023656D01*
X023300Y022456D01*
X023200Y022456D01*
X023200Y023756D01*
X023200Y022456D02*
X023200Y022156D01*
X023200Y021356D01*
X023200Y021056D01*
X023300Y021056D01*
X023300Y019856D01*
X023200Y019756D01*
X023200Y021056D01*
X023200Y021356D02*
X023350Y021356D01*
X023350Y022156D01*
X023200Y022156D01*
X021550Y022506D02*
X021550Y021006D01*
X020050Y021006D01*
X020050Y022506D01*
X021550Y022506D01*
X019400Y021756D02*
X019402Y021831D01*
X019408Y021905D01*
X019418Y021979D01*
X019432Y022052D01*
X019449Y022124D01*
X019471Y022196D01*
X019496Y022266D01*
X019525Y022334D01*
X019558Y022402D01*
X019594Y022467D01*
X019633Y022530D01*
X019676Y022591D01*
X019722Y022650D01*
X019771Y022706D01*
X019823Y022759D01*
X019878Y022810D01*
X019935Y022857D01*
X019995Y022902D01*
X020057Y022943D01*
X020122Y022981D01*
X020188Y023015D01*
X020256Y023046D01*
X020325Y023073D01*
X020396Y023096D01*
X020468Y023116D01*
X020541Y023132D01*
X020614Y023144D01*
X020688Y023152D01*
X020763Y023156D01*
X020837Y023156D01*
X020912Y023152D01*
X020986Y023144D01*
X021059Y023132D01*
X021132Y023116D01*
X021204Y023096D01*
X021275Y023073D01*
X021344Y023046D01*
X021412Y023015D01*
X021478Y022981D01*
X021543Y022943D01*
X021605Y022902D01*
X021665Y022857D01*
X021722Y022810D01*
X021777Y022759D01*
X021829Y022706D01*
X021878Y022650D01*
X021924Y022591D01*
X021967Y022530D01*
X022006Y022467D01*
X022042Y022402D01*
X022075Y022334D01*
X022104Y022266D01*
X022129Y022196D01*
X022151Y022124D01*
X022168Y022052D01*
X022182Y021979D01*
X022192Y021905D01*
X022198Y021831D01*
X022200Y021756D01*
X022198Y021681D01*
X022192Y021607D01*
X022182Y021533D01*
X022168Y021460D01*
X022151Y021388D01*
X022129Y021316D01*
X022104Y021246D01*
X022075Y021178D01*
X022042Y021110D01*
X022006Y021045D01*
X021967Y020982D01*
X021924Y020921D01*
X021878Y020862D01*
X021829Y020806D01*
X021777Y020753D01*
X021722Y020702D01*
X021665Y020655D01*
X021605Y020610D01*
X021543Y020569D01*
X021478Y020531D01*
X021412Y020497D01*
X021344Y020466D01*
X021275Y020439D01*
X021204Y020416D01*
X021132Y020396D01*
X021059Y020380D01*
X020986Y020368D01*
X020912Y020360D01*
X020837Y020356D01*
X020763Y020356D01*
X020688Y020360D01*
X020614Y020368D01*
X020541Y020380D01*
X020468Y020396D01*
X020396Y020416D01*
X020325Y020439D01*
X020256Y020466D01*
X020188Y020497D01*
X020122Y020531D01*
X020057Y020569D01*
X019995Y020610D01*
X019935Y020655D01*
X019878Y020702D01*
X019823Y020753D01*
X019771Y020806D01*
X019722Y020862D01*
X019676Y020921D01*
X019633Y020982D01*
X019594Y021045D01*
X019558Y021110D01*
X019525Y021178D01*
X019496Y021246D01*
X019471Y021316D01*
X019449Y021388D01*
X019432Y021460D01*
X019418Y021533D01*
X019408Y021607D01*
X019402Y021681D01*
X019400Y021756D01*
X020350Y019356D02*
X021250Y019356D01*
X022300Y019356D02*
X022800Y019356D01*
X023200Y019756D01*
X024550Y018506D02*
X024300Y018256D01*
X024300Y017756D01*
X024550Y017506D01*
X024300Y017256D01*
X024300Y016756D01*
X024550Y016506D01*
X024300Y016256D01*
X024300Y015756D01*
X024550Y015506D01*
X024300Y015256D01*
X024300Y014756D01*
X024550Y014506D01*
X025050Y014506D01*
X025300Y014756D01*
X025300Y015256D01*
X025050Y015506D01*
X025300Y015756D01*
X025300Y016256D01*
X025050Y016506D01*
X025300Y016756D01*
X025300Y017256D01*
X025050Y017506D01*
X025300Y017756D01*
X025300Y018256D01*
X025050Y018506D01*
X024550Y018506D01*
X023500Y017406D02*
X023500Y016606D01*
X023498Y016589D01*
X023494Y016572D01*
X023487Y016556D01*
X023477Y016542D01*
X023464Y016529D01*
X023450Y016519D01*
X023434Y016512D01*
X023417Y016508D01*
X023400Y016506D01*
X020700Y016506D01*
X020683Y016508D01*
X020666Y016512D01*
X020650Y016519D01*
X020636Y016529D01*
X020623Y016542D01*
X020613Y016556D01*
X020606Y016572D01*
X020602Y016589D01*
X020600Y016606D01*
X020600Y017406D01*
X020602Y017423D01*
X020606Y017440D01*
X020613Y017456D01*
X020623Y017470D01*
X020636Y017483D01*
X020650Y017493D01*
X020666Y017500D01*
X020683Y017504D01*
X020700Y017506D01*
X023400Y017506D01*
X023417Y017504D01*
X023434Y017500D01*
X023450Y017493D01*
X023464Y017483D01*
X023477Y017470D01*
X023487Y017456D01*
X023494Y017440D01*
X023498Y017423D01*
X023500Y017406D01*
X022650Y017006D02*
X022170Y017006D01*
X021920Y017006D02*
X021450Y017006D01*
X018400Y017306D02*
X018400Y002706D01*
X016200Y002706D01*
X016200Y017306D01*
X017050Y017306D01*
X017052Y017276D01*
X017057Y017246D01*
X017066Y017217D01*
X017079Y017190D01*
X017094Y017164D01*
X017113Y017140D01*
X017134Y017119D01*
X017158Y017100D01*
X017184Y017085D01*
X017211Y017072D01*
X017240Y017063D01*
X017270Y017058D01*
X017300Y017056D01*
X017330Y017058D01*
X017360Y017063D01*
X017389Y017072D01*
X017416Y017085D01*
X017442Y017100D01*
X017466Y017119D01*
X017487Y017140D01*
X017506Y017164D01*
X017521Y017190D01*
X017534Y017217D01*
X017543Y017246D01*
X017548Y017276D01*
X017550Y017306D01*
X018400Y017306D01*
X016200Y019756D02*
X015800Y019356D01*
X015300Y019356D01*
X014250Y019356D02*
X013350Y019356D01*
X009200Y023756D02*
X008800Y024156D01*
X008300Y024156D01*
X007250Y024156D02*
X006350Y024156D01*
X005300Y024156D02*
X004800Y024156D01*
X004400Y023756D01*
X020300Y009356D02*
X020300Y006656D01*
X020302Y006639D01*
X020306Y006622D01*
X020313Y006606D01*
X020323Y006592D01*
X020336Y006579D01*
X020350Y006569D01*
X020366Y006562D01*
X020383Y006558D01*
X020400Y006556D01*
X021200Y006556D01*
X021217Y006558D01*
X021234Y006562D01*
X021250Y006569D01*
X021264Y006579D01*
X021277Y006592D01*
X021287Y006606D01*
X021294Y006622D01*
X021298Y006639D01*
X021300Y006656D01*
X021300Y009356D01*
X021298Y009373D01*
X021294Y009390D01*
X021287Y009406D01*
X021277Y009420D01*
X021264Y009433D01*
X021250Y009443D01*
X021234Y009450D01*
X021217Y009454D01*
X021200Y009456D01*
X020400Y009456D01*
X020383Y009454D01*
X020366Y009450D01*
X020350Y009443D01*
X020336Y009433D01*
X020323Y009420D01*
X020313Y009406D01*
X020306Y009390D01*
X020302Y009373D01*
X020300Y009356D01*
X020950Y010056D02*
X024650Y010056D01*
X024673Y010058D01*
X024696Y010063D01*
X024718Y010072D01*
X024738Y010085D01*
X024756Y010100D01*
X024771Y010118D01*
X024784Y010138D01*
X024793Y010160D01*
X024798Y010183D01*
X024800Y010206D01*
X024800Y010456D01*
X024800Y011556D02*
X024800Y012456D01*
X024800Y013556D02*
X024800Y013806D01*
X024798Y013829D01*
X024793Y013852D01*
X024784Y013874D01*
X024771Y013894D01*
X024756Y013912D01*
X024738Y013927D01*
X024718Y013940D01*
X024696Y013949D01*
X024673Y013954D01*
X024650Y013956D01*
X020950Y013956D01*
X020927Y013954D01*
X020904Y013949D01*
X020882Y013940D01*
X020862Y013927D01*
X020844Y013912D01*
X020829Y013894D01*
X020816Y013874D01*
X020807Y013852D01*
X020802Y013829D01*
X020800Y013806D01*
X020800Y012606D01*
X021650Y012006D02*
X021850Y012006D01*
X022150Y011856D02*
X022150Y012156D01*
X022650Y012156D01*
X022850Y012406D01*
X022950Y012406D01*
X022950Y012156D01*
X023450Y012156D01*
X023450Y011856D01*
X022950Y011856D01*
X022950Y011606D01*
X022850Y011606D01*
X022650Y011856D01*
X022150Y011856D01*
X022100Y011306D02*
X022000Y011206D01*
X022800Y011056D02*
X022800Y010856D01*
X023400Y011406D02*
X023600Y011206D01*
X021650Y012006D02*
X021652Y012073D01*
X021658Y012141D01*
X021668Y012208D01*
X021682Y012274D01*
X021699Y012339D01*
X021721Y012403D01*
X021746Y012466D01*
X021775Y012527D01*
X021807Y012586D01*
X021843Y012643D01*
X021882Y012698D01*
X021924Y012751D01*
X021969Y012801D01*
X022017Y012848D01*
X022068Y012893D01*
X022121Y012934D01*
X022177Y012973D01*
X022235Y013008D01*
X022295Y013039D01*
X022356Y013067D01*
X022419Y013091D01*
X022483Y013112D01*
X022549Y013128D01*
X022615Y013141D01*
X022682Y013150D01*
X022749Y013155D01*
X022817Y013156D01*
X022884Y013153D01*
X022951Y013146D01*
X023018Y013135D01*
X023084Y013120D01*
X023149Y013102D01*
X023213Y013079D01*
X023275Y013053D01*
X023336Y013024D01*
X023394Y012990D01*
X023451Y012954D01*
X023506Y012914D01*
X023558Y012871D01*
X023607Y012825D01*
X023654Y012776D01*
X023698Y012725D01*
X023738Y012671D01*
X023776Y012615D01*
X023810Y012556D01*
X023840Y012496D01*
X023867Y012434D01*
X023891Y012371D01*
X023910Y012306D01*
X023926Y012241D01*
X023938Y012174D01*
X023946Y012107D01*
X023950Y012040D01*
X023950Y011972D01*
X023946Y011905D01*
X023938Y011838D01*
X023926Y011771D01*
X023910Y011706D01*
X023891Y011641D01*
X023867Y011578D01*
X023840Y011516D01*
X023810Y011456D01*
X023776Y011397D01*
X023738Y011341D01*
X023698Y011287D01*
X023654Y011236D01*
X023607Y011187D01*
X023558Y011141D01*
X023506Y011098D01*
X023451Y011058D01*
X023394Y011022D01*
X023336Y010988D01*
X023275Y010959D01*
X023213Y010933D01*
X023149Y010910D01*
X023084Y010892D01*
X023018Y010877D01*
X022951Y010866D01*
X022884Y010859D01*
X022817Y010856D01*
X022749Y010857D01*
X022682Y010862D01*
X022615Y010871D01*
X022549Y010884D01*
X022483Y010900D01*
X022419Y010921D01*
X022356Y010945D01*
X022295Y010973D01*
X022235Y011004D01*
X022177Y011039D01*
X022121Y011078D01*
X022068Y011119D01*
X022017Y011164D01*
X021969Y011211D01*
X021924Y011261D01*
X021882Y011314D01*
X021843Y011369D01*
X021807Y011426D01*
X021775Y011485D01*
X021746Y011546D01*
X021721Y011609D01*
X021699Y011673D01*
X021682Y011738D01*
X021668Y011804D01*
X021658Y011871D01*
X021652Y011939D01*
X021650Y012006D01*
X022100Y012706D02*
X022000Y012806D01*
X022800Y012956D02*
X022800Y013156D01*
X023400Y012606D02*
X023600Y012806D01*
X022000Y012006D02*
X022002Y012062D01*
X022008Y012119D01*
X022018Y012174D01*
X022032Y012229D01*
X022049Y012283D01*
X022071Y012335D01*
X022096Y012385D01*
X022124Y012434D01*
X022156Y012481D01*
X022191Y012525D01*
X022229Y012567D01*
X022270Y012606D01*
X022314Y012641D01*
X022360Y012674D01*
X022408Y012703D01*
X022458Y012729D01*
X022510Y012752D01*
X022564Y012770D01*
X022618Y012785D01*
X022673Y012796D01*
X022729Y012803D01*
X022786Y012806D01*
X022842Y012805D01*
X022899Y012800D01*
X022954Y012791D01*
X023009Y012778D01*
X023063Y012761D01*
X023116Y012741D01*
X023167Y012717D01*
X023216Y012689D01*
X023263Y012658D01*
X023308Y012624D01*
X023351Y012586D01*
X023390Y012546D01*
X023427Y012503D01*
X023460Y012458D01*
X023490Y012410D01*
X023517Y012360D01*
X023540Y012309D01*
X023560Y012256D01*
X023576Y012202D01*
X023588Y012146D01*
X023596Y012091D01*
X023600Y012034D01*
X023600Y011978D01*
X023596Y011921D01*
X023588Y011866D01*
X023576Y011810D01*
X023560Y011756D01*
X023540Y011703D01*
X023517Y011652D01*
X023490Y011602D01*
X023460Y011554D01*
X023427Y011509D01*
X023390Y011466D01*
X023351Y011426D01*
X023308Y011388D01*
X023263Y011354D01*
X023216Y011323D01*
X023167Y011295D01*
X023116Y011271D01*
X023063Y011251D01*
X023009Y011234D01*
X022954Y011221D01*
X022899Y011212D01*
X022842Y011207D01*
X022786Y011206D01*
X022729Y011209D01*
X022673Y011216D01*
X022618Y011227D01*
X022564Y011242D01*
X022510Y011260D01*
X022458Y011283D01*
X022408Y011309D01*
X022360Y011338D01*
X022314Y011371D01*
X022270Y011406D01*
X022229Y011445D01*
X022191Y011487D01*
X022156Y011531D01*
X022124Y011578D01*
X022096Y011627D01*
X022071Y011677D01*
X022049Y011729D01*
X022032Y011783D01*
X022018Y011838D01*
X022008Y011893D01*
X022002Y011950D01*
X022000Y012006D01*
X020800Y011406D02*
X020800Y010206D01*
X020802Y010183D01*
X020807Y010160D01*
X020816Y010138D01*
X020829Y010118D01*
X020844Y010100D01*
X020862Y010085D01*
X020882Y010072D01*
X020904Y010063D01*
X020927Y010058D01*
X020950Y010056D01*
X020800Y008606D02*
X020800Y008136D01*
X020800Y007886D02*
X020800Y007406D01*
X020550Y005956D02*
X020400Y005956D01*
X020383Y005954D01*
X020366Y005950D01*
X020350Y005943D01*
X020336Y005933D01*
X020323Y005920D01*
X020313Y005906D01*
X020306Y005890D01*
X020302Y005873D01*
X020300Y005856D01*
X020550Y005956D02*
X020600Y005906D01*
X022500Y005906D01*
X022550Y005956D01*
X022700Y005956D01*
X022717Y005954D01*
X022734Y005950D01*
X022750Y005943D01*
X022764Y005933D01*
X022777Y005920D01*
X022787Y005906D01*
X022794Y005890D01*
X022798Y005873D01*
X022800Y005856D01*
X022800Y005156D02*
X022798Y005139D01*
X022794Y005122D01*
X022787Y005106D01*
X022777Y005092D01*
X022764Y005079D01*
X022750Y005069D01*
X022734Y005062D01*
X022717Y005058D01*
X022700Y005056D01*
X022550Y005056D01*
X022500Y005106D01*
X020600Y005106D01*
X020550Y005056D01*
X020400Y005056D01*
X020400Y004956D02*
X020550Y004956D01*
X020600Y004906D01*
X022500Y004906D01*
X022550Y004956D01*
X022700Y004956D01*
X022717Y004954D01*
X022734Y004950D01*
X022750Y004943D01*
X022764Y004933D01*
X022777Y004920D01*
X022787Y004906D01*
X022794Y004890D01*
X022798Y004873D01*
X022800Y004856D01*
X022800Y004156D02*
X022798Y004139D01*
X022794Y004122D01*
X022787Y004106D01*
X022777Y004092D01*
X022764Y004079D01*
X022750Y004069D01*
X022734Y004062D01*
X022717Y004058D01*
X022700Y004056D01*
X022550Y004056D01*
X022500Y004106D01*
X020600Y004106D01*
X020550Y004056D01*
X020400Y004056D01*
X020383Y004058D01*
X020366Y004062D01*
X020350Y004069D01*
X020336Y004079D01*
X020323Y004092D01*
X020313Y004106D01*
X020306Y004122D01*
X020302Y004139D01*
X020300Y004156D01*
X020300Y004856D02*
X020302Y004873D01*
X020306Y004890D01*
X020313Y004906D01*
X020323Y004920D01*
X020336Y004933D01*
X020350Y004943D01*
X020366Y004950D01*
X020383Y004954D01*
X020400Y004956D01*
X020400Y005056D02*
X020383Y005058D01*
X020366Y005062D01*
X020350Y005069D01*
X020336Y005079D01*
X020323Y005092D01*
X020313Y005106D01*
X020306Y005122D01*
X020302Y005139D01*
X020300Y005156D01*
X024210Y005946D02*
X024152Y005923D01*
X024095Y005896D01*
X024040Y005866D01*
X023987Y005832D01*
X023936Y005795D01*
X023888Y005755D01*
X023842Y005712D01*
X023799Y005667D01*
X023759Y005618D01*
X023723Y005567D01*
X023689Y005514D01*
X023659Y005459D01*
X023632Y005403D01*
X023609Y005344D01*
X023590Y005285D01*
X023574Y005224D01*
X023562Y005162D01*
X023554Y005100D01*
X023550Y005037D01*
X023550Y004975D01*
X023554Y004912D01*
X023562Y004850D01*
X023574Y004788D01*
X023590Y004727D01*
X023609Y004668D01*
X023632Y004609D01*
X023659Y004553D01*
X023689Y004498D01*
X023723Y004445D01*
X023759Y004394D01*
X023799Y004345D01*
X023842Y004300D01*
X023888Y004257D01*
X023936Y004217D01*
X023987Y004180D01*
X024040Y004146D01*
X024095Y004116D01*
X024152Y004089D01*
X024210Y004066D01*
X024890Y004066D02*
X024948Y004089D01*
X025005Y004116D01*
X025060Y004146D01*
X025113Y004180D01*
X025164Y004217D01*
X025212Y004257D01*
X025258Y004300D01*
X025301Y004345D01*
X025341Y004394D01*
X025377Y004445D01*
X025411Y004498D01*
X025441Y004553D01*
X025468Y004609D01*
X025491Y004668D01*
X025510Y004727D01*
X025526Y004788D01*
X025538Y004850D01*
X025546Y004912D01*
X025550Y004975D01*
X025550Y005037D01*
X025546Y005100D01*
X025538Y005162D01*
X025526Y005224D01*
X025510Y005285D01*
X025491Y005344D01*
X025468Y005403D01*
X025441Y005459D01*
X025411Y005514D01*
X025377Y005567D01*
X025341Y005618D01*
X025301Y005667D01*
X025258Y005712D01*
X025212Y005755D01*
X025164Y005795D01*
X025113Y005832D01*
X025060Y005866D01*
X025005Y005896D01*
X024948Y005923D01*
X024890Y005946D01*
D13*
X023525Y006531D02*
X023525Y006831D01*
X023525Y006992D02*
X023075Y006992D01*
X023075Y007217D01*
X023150Y007292D01*
X023450Y007292D01*
X023525Y007217D01*
X023525Y006992D01*
X023525Y007452D02*
X023525Y007752D01*
X023525Y007602D02*
X023075Y007602D01*
X023225Y007452D01*
X023075Y006531D02*
X023525Y006531D01*
X022340Y004932D02*
X022115Y004706D01*
X022415Y004706D01*
X022340Y004481D02*
X022340Y004932D01*
X021954Y004856D02*
X021954Y004706D01*
X021879Y004631D01*
X021654Y004631D01*
X021654Y004481D02*
X021654Y004932D01*
X021879Y004932D01*
X021954Y004856D01*
X021804Y004631D02*
X021954Y004481D01*
X021336Y005156D02*
X021261Y005081D01*
X021110Y005081D01*
X021035Y005156D01*
X021035Y005306D02*
X021186Y005381D01*
X021261Y005381D01*
X021336Y005306D01*
X021336Y005156D01*
X021035Y005306D02*
X021035Y005532D01*
X021336Y005532D01*
X020875Y005456D02*
X020875Y005306D01*
X020800Y005231D01*
X020575Y005231D01*
X020575Y005081D02*
X020575Y005532D01*
X020800Y005532D01*
X020875Y005456D01*
X020725Y005231D02*
X020875Y005081D01*
X020050Y006681D02*
X019750Y006681D01*
X019675Y006756D01*
X019675Y006906D01*
X019750Y006981D01*
X019900Y007142D02*
X019900Y007442D01*
X020125Y007367D02*
X019675Y007367D01*
X019900Y007142D01*
X020050Y006981D02*
X020125Y006906D01*
X020125Y006756D01*
X020050Y006681D01*
X023904Y009381D02*
X023904Y009832D01*
X024129Y009832D01*
X024204Y009756D01*
X024204Y009606D01*
X024129Y009531D01*
X023904Y009531D01*
X024054Y009531D02*
X024204Y009381D01*
X024365Y009381D02*
X024665Y009681D01*
X024665Y009756D01*
X024590Y009832D01*
X024440Y009832D01*
X024365Y009756D01*
X024365Y009381D02*
X024665Y009381D01*
X024800Y013971D02*
X024575Y014196D01*
X025025Y014196D01*
X024800Y014271D02*
X024800Y013971D01*
X023190Y015881D02*
X023040Y015881D01*
X022965Y015956D01*
X022804Y015956D02*
X022729Y015881D01*
X022579Y015881D01*
X022504Y015956D01*
X022504Y016256D01*
X022579Y016332D01*
X022729Y016332D01*
X022804Y016256D01*
X022965Y016256D02*
X023040Y016332D01*
X023190Y016332D01*
X023265Y016256D01*
X023265Y016181D01*
X023190Y016106D01*
X023265Y016031D01*
X023265Y015956D01*
X023190Y015881D01*
X023190Y016106D02*
X023115Y016106D01*
X025475Y017225D02*
X025550Y017150D01*
X025625Y017150D01*
X025700Y017225D01*
X025700Y017375D01*
X025775Y017450D01*
X025850Y017450D01*
X025925Y017375D01*
X025925Y017225D01*
X025850Y017150D01*
X025475Y017225D02*
X025475Y017375D01*
X025550Y017450D01*
X025475Y017610D02*
X025775Y017610D01*
X025925Y017760D01*
X025775Y017911D01*
X025475Y017911D01*
X025625Y018071D02*
X025475Y018221D01*
X025925Y018221D01*
X025925Y018071D02*
X025925Y018371D01*
X025025Y018521D02*
X025025Y018821D01*
X025025Y018671D02*
X024575Y018671D01*
X024725Y018521D01*
X022625Y019806D02*
X022550Y019731D01*
X022625Y019806D02*
X022625Y019956D01*
X022550Y020031D01*
X022475Y020031D01*
X022400Y019956D01*
X022400Y019881D01*
X022400Y019956D02*
X022325Y020031D01*
X022250Y020031D01*
X022175Y019956D01*
X022175Y019806D01*
X022250Y019731D01*
X019475Y019731D02*
X019475Y020031D01*
X019475Y019881D02*
X019025Y019881D01*
X019175Y019731D01*
X018025Y019856D02*
X017950Y019781D01*
X018025Y019856D02*
X018025Y020006D01*
X017950Y020081D01*
X017875Y020081D01*
X017800Y020006D01*
X017800Y019856D01*
X017725Y019781D01*
X017650Y019781D01*
X017575Y019856D01*
X017575Y020006D01*
X017650Y020081D01*
X017725Y020242D02*
X017575Y020392D01*
X018025Y020392D01*
X018025Y020242D02*
X018025Y020542D01*
X015625Y019956D02*
X015625Y019806D01*
X015550Y019731D01*
X015400Y019881D02*
X015400Y019956D01*
X015475Y020031D01*
X015550Y020031D01*
X015625Y019956D01*
X015400Y019956D02*
X015325Y020031D01*
X015250Y020031D01*
X015175Y019956D01*
X015175Y019806D01*
X015250Y019731D01*
X016325Y018042D02*
X016475Y018042D01*
X016400Y018042D02*
X016400Y017591D01*
X016325Y017591D02*
X016475Y017591D01*
X016632Y017666D02*
X016632Y017966D01*
X016707Y018042D01*
X016857Y018042D01*
X016932Y017966D01*
X017092Y017891D02*
X017242Y018042D01*
X017242Y017591D01*
X017092Y017591D02*
X017393Y017591D01*
X016932Y017666D02*
X016857Y017591D01*
X016707Y017591D01*
X016632Y017666D01*
X014325Y016871D02*
X014325Y016571D01*
X014325Y016721D02*
X013875Y016721D01*
X014025Y016571D01*
X014100Y016411D02*
X014175Y016336D01*
X014175Y016110D01*
X014325Y016110D02*
X013875Y016110D01*
X013875Y016336D01*
X013950Y016411D01*
X014100Y016411D01*
X014175Y016260D02*
X014325Y016411D01*
X011475Y015717D02*
X011475Y015567D01*
X011400Y015492D01*
X011475Y015331D02*
X011325Y015181D01*
X011325Y015256D02*
X011325Y015031D01*
X011475Y015031D02*
X011025Y015031D01*
X011025Y015256D01*
X011100Y015331D01*
X011250Y015331D01*
X011325Y015256D01*
X011100Y015492D02*
X011025Y015567D01*
X011025Y015717D01*
X011100Y015792D01*
X011175Y015792D01*
X011250Y015717D01*
X011325Y015792D01*
X011400Y015792D01*
X011475Y015717D01*
X011250Y015717D02*
X011250Y015642D01*
X008050Y015506D02*
X008096Y015550D01*
X008146Y015591D01*
X008197Y015629D01*
X008251Y015664D01*
X008307Y015695D01*
X008365Y015724D01*
X008424Y015748D01*
X008484Y015769D01*
X008546Y015786D01*
X008609Y015800D01*
X008672Y015809D01*
X008736Y015815D01*
X008800Y015817D01*
X008864Y015815D01*
X008928Y015809D01*
X008991Y015800D01*
X009054Y015786D01*
X009116Y015769D01*
X009176Y015748D01*
X009235Y015724D01*
X009293Y015695D01*
X009349Y015664D01*
X009403Y015629D01*
X009454Y015591D01*
X009504Y015550D01*
X009550Y015506D01*
X009594Y015460D01*
X009635Y015410D01*
X009673Y015359D01*
X009708Y015305D01*
X009739Y015249D01*
X009768Y015191D01*
X009792Y015132D01*
X009813Y015072D01*
X009830Y015010D01*
X009844Y014947D01*
X009853Y014884D01*
X009859Y014820D01*
X009861Y014756D01*
X009859Y014692D01*
X009853Y014628D01*
X009844Y014565D01*
X009830Y014502D01*
X009813Y014440D01*
X009792Y014380D01*
X009768Y014321D01*
X009739Y014263D01*
X009708Y014207D01*
X009673Y014153D01*
X009635Y014102D01*
X009594Y014052D01*
X009550Y014006D01*
X009504Y013962D01*
X009454Y013921D01*
X009403Y013883D01*
X009349Y013848D01*
X009293Y013817D01*
X009235Y013788D01*
X009176Y013764D01*
X009116Y013743D01*
X009054Y013726D01*
X008991Y013712D01*
X008928Y013703D01*
X008864Y013697D01*
X008800Y013695D01*
X008736Y013697D01*
X008672Y013703D01*
X008609Y013712D01*
X008546Y013726D01*
X008484Y013743D01*
X008424Y013764D01*
X008365Y013788D01*
X008307Y013817D01*
X008251Y013848D01*
X008197Y013883D01*
X008146Y013921D01*
X008096Y013962D01*
X008050Y014006D01*
X008050Y015506D01*
X008550Y015756D02*
X008550Y013756D01*
X008236Y013656D02*
X008236Y013506D01*
X008161Y013431D01*
X008010Y013431D01*
X007935Y013506D01*
X007935Y013656D02*
X008086Y013731D01*
X008161Y013731D01*
X008236Y013656D01*
X008236Y013882D02*
X007935Y013882D01*
X007935Y013656D01*
X007775Y013506D02*
X007700Y013431D01*
X007550Y013431D01*
X007475Y013506D01*
X007475Y013806D01*
X007550Y013882D01*
X007700Y013882D01*
X007775Y013806D01*
X007650Y018131D02*
X007500Y018131D01*
X007425Y018206D01*
X007425Y018506D01*
X007500Y018582D01*
X007650Y018582D01*
X007725Y018506D01*
X007885Y018356D02*
X007885Y018206D01*
X007960Y018131D01*
X008111Y018131D01*
X008186Y018206D01*
X008186Y018281D01*
X008111Y018356D01*
X007885Y018356D01*
X008036Y018506D01*
X008186Y018582D01*
X007725Y018206D02*
X007650Y018131D01*
X008250Y019731D02*
X008175Y019806D01*
X008175Y019956D01*
X008250Y020031D01*
X008325Y020031D01*
X008400Y019956D01*
X008475Y020031D01*
X008550Y020031D01*
X008625Y019956D01*
X008625Y019806D01*
X008550Y019731D01*
X008400Y019881D02*
X008400Y019956D01*
X010575Y020006D02*
X010575Y019856D01*
X010650Y019781D01*
X010725Y019781D01*
X010800Y019856D01*
X010800Y020006D01*
X010875Y020081D01*
X010950Y020081D01*
X011025Y020006D01*
X011025Y019856D01*
X010950Y019781D01*
X010650Y020081D02*
X010575Y020006D01*
X010650Y020242D02*
X010575Y020317D01*
X010575Y020467D01*
X010650Y020542D01*
X010725Y020542D01*
X011025Y020242D01*
X011025Y020542D01*
X012025Y019881D02*
X012475Y019881D01*
X012475Y019731D02*
X012475Y020031D01*
X012175Y019731D02*
X012025Y019881D01*
X012100Y023331D02*
X012025Y023406D01*
X012025Y023556D01*
X012100Y023631D01*
X012175Y023631D01*
X012475Y023331D01*
X012475Y023631D01*
X015175Y023606D02*
X015400Y023381D01*
X015400Y023681D01*
X015625Y023606D02*
X015175Y023606D01*
X019025Y023556D02*
X019025Y023406D01*
X019100Y023331D01*
X019025Y023556D02*
X019100Y023631D01*
X019175Y023631D01*
X019475Y023331D01*
X019475Y023631D01*
X022175Y023606D02*
X022400Y023381D01*
X022400Y023681D01*
X022625Y023606D02*
X022175Y023606D01*
X012675Y012371D02*
X012675Y012071D01*
X012675Y012221D02*
X012225Y012221D01*
X012375Y012071D01*
X012300Y011911D02*
X012225Y011836D01*
X012225Y011610D01*
X012675Y011610D01*
X012675Y011836D01*
X012600Y011911D01*
X012300Y011911D01*
X012225Y011450D02*
X012225Y011150D01*
X012675Y011150D01*
X012675Y011450D01*
X012450Y011300D02*
X012450Y011150D01*
X012625Y011071D02*
X013075Y011071D01*
X013075Y010921D02*
X013075Y011221D01*
X012775Y010921D02*
X012625Y011071D01*
X012675Y010990D02*
X012675Y010690D01*
X012225Y010690D01*
X012625Y010686D02*
X012625Y010535D01*
X012700Y010460D01*
X013000Y010460D01*
X013075Y010535D01*
X013075Y010686D01*
X013000Y010761D01*
X012700Y010761D02*
X012625Y010686D01*
X012475Y007292D02*
X012475Y006992D01*
X012475Y007142D02*
X012025Y007142D01*
X012175Y006992D01*
X012100Y006831D02*
X012025Y006756D01*
X012025Y006606D01*
X012100Y006531D01*
X012400Y006531D01*
X012475Y006606D01*
X012475Y006756D01*
X012400Y006831D01*
X012100Y006831D01*
X012325Y006681D02*
X012475Y006831D01*
X011475Y006442D02*
X011475Y006142D01*
X011175Y006442D01*
X011100Y006442D01*
X011025Y006367D01*
X011025Y006217D01*
X011100Y006142D01*
X011100Y005981D02*
X011025Y005906D01*
X011025Y005756D01*
X011100Y005681D01*
X011400Y005681D01*
X011475Y005756D01*
X011475Y005906D01*
X011400Y005981D01*
X005475Y019731D02*
X005475Y020031D01*
X005475Y019881D02*
X005025Y019881D01*
X005175Y019731D01*
X004025Y019856D02*
X003950Y019781D01*
X004025Y019856D02*
X004025Y020006D01*
X003950Y020081D01*
X003875Y020081D01*
X003800Y020006D01*
X003800Y019856D01*
X003725Y019781D01*
X003650Y019781D01*
X003575Y019856D01*
X003575Y020006D01*
X003650Y020081D01*
X003650Y020242D02*
X003575Y020317D01*
X003575Y020467D01*
X003650Y020542D01*
X003725Y020542D01*
X003800Y020467D01*
X003875Y020542D01*
X003950Y020542D01*
X004025Y020467D01*
X004025Y020317D01*
X003950Y020242D01*
X003800Y020392D02*
X003800Y020467D01*
X005100Y023331D02*
X005025Y023406D01*
X005025Y023556D01*
X005100Y023631D01*
X005175Y023631D01*
X005475Y023331D01*
X005475Y023631D01*
X008175Y023606D02*
X008400Y023381D01*
X008400Y023681D01*
X008625Y023606D02*
X008175Y023606D01*
D14*
X007450Y022406D02*
X007450Y021106D01*
X006150Y021106D01*
X006150Y022406D01*
X007450Y022406D01*
X006500Y021756D02*
X006502Y021790D01*
X006508Y021824D01*
X006517Y021857D01*
X006531Y021888D01*
X006548Y021918D01*
X006568Y021946D01*
X006591Y021971D01*
X006617Y021994D01*
X006645Y022013D01*
X006675Y022029D01*
X006707Y022041D01*
X006740Y022050D01*
X006774Y022055D01*
X006809Y022056D01*
X006843Y022053D01*
X006876Y022046D01*
X006909Y022036D01*
X006940Y022021D01*
X006969Y022004D01*
X006996Y021983D01*
X007021Y021959D01*
X007043Y021932D01*
X007061Y021904D01*
X007076Y021873D01*
X007088Y021841D01*
X007096Y021807D01*
X007100Y021773D01*
X007100Y021739D01*
X007096Y021705D01*
X007088Y021671D01*
X007076Y021639D01*
X007061Y021608D01*
X007043Y021580D01*
X007021Y021553D01*
X006996Y021529D01*
X006969Y021508D01*
X006940Y021491D01*
X006909Y021476D01*
X006876Y021466D01*
X006843Y021459D01*
X006809Y021456D01*
X006774Y021457D01*
X006740Y021462D01*
X006707Y021471D01*
X006675Y021483D01*
X006645Y021499D01*
X006617Y021518D01*
X006591Y021541D01*
X006568Y021566D01*
X006548Y021594D01*
X006531Y021624D01*
X006517Y021655D01*
X006508Y021688D01*
X006502Y021722D01*
X006500Y021756D01*
X006400Y021756D02*
X006402Y021796D01*
X006408Y021835D01*
X006418Y021874D01*
X006431Y021911D01*
X006449Y021947D01*
X006470Y021981D01*
X006494Y022013D01*
X006521Y022042D01*
X006551Y022069D01*
X006583Y022092D01*
X006618Y022112D01*
X006654Y022128D01*
X006692Y022141D01*
X006731Y022150D01*
X006770Y022155D01*
X006810Y022156D01*
X006850Y022153D01*
X006889Y022146D01*
X006927Y022135D01*
X006965Y022121D01*
X007000Y022102D01*
X007033Y022081D01*
X007065Y022056D01*
X007093Y022028D01*
X007119Y021998D01*
X007141Y021965D01*
X007160Y021930D01*
X007176Y021893D01*
X007188Y021855D01*
X007196Y021816D01*
X007200Y021776D01*
X007200Y021736D01*
X007196Y021696D01*
X007188Y021657D01*
X007176Y021619D01*
X007160Y021582D01*
X007141Y021547D01*
X007119Y021514D01*
X007093Y021484D01*
X007065Y021456D01*
X007033Y021431D01*
X007000Y021410D01*
X006965Y021391D01*
X006927Y021377D01*
X006889Y021366D01*
X006850Y021359D01*
X006810Y021356D01*
X006770Y021357D01*
X006731Y021362D01*
X006692Y021371D01*
X006654Y021384D01*
X006618Y021400D01*
X006583Y021420D01*
X006551Y021443D01*
X006521Y021470D01*
X006494Y021499D01*
X006470Y021531D01*
X006449Y021565D01*
X006431Y021601D01*
X006418Y021638D01*
X006408Y021677D01*
X006402Y021716D01*
X006400Y021756D01*
X013150Y021106D02*
X014450Y021106D01*
X014450Y022406D01*
X013150Y022406D01*
X013150Y021106D01*
X013500Y021756D02*
X013502Y021790D01*
X013508Y021824D01*
X013517Y021857D01*
X013531Y021888D01*
X013548Y021918D01*
X013568Y021946D01*
X013591Y021971D01*
X013617Y021994D01*
X013645Y022013D01*
X013675Y022029D01*
X013707Y022041D01*
X013740Y022050D01*
X013774Y022055D01*
X013809Y022056D01*
X013843Y022053D01*
X013876Y022046D01*
X013909Y022036D01*
X013940Y022021D01*
X013969Y022004D01*
X013996Y021983D01*
X014021Y021959D01*
X014043Y021932D01*
X014061Y021904D01*
X014076Y021873D01*
X014088Y021841D01*
X014096Y021807D01*
X014100Y021773D01*
X014100Y021739D01*
X014096Y021705D01*
X014088Y021671D01*
X014076Y021639D01*
X014061Y021608D01*
X014043Y021580D01*
X014021Y021553D01*
X013996Y021529D01*
X013969Y021508D01*
X013940Y021491D01*
X013909Y021476D01*
X013876Y021466D01*
X013843Y021459D01*
X013809Y021456D01*
X013774Y021457D01*
X013740Y021462D01*
X013707Y021471D01*
X013675Y021483D01*
X013645Y021499D01*
X013617Y021518D01*
X013591Y021541D01*
X013568Y021566D01*
X013548Y021594D01*
X013531Y021624D01*
X013517Y021655D01*
X013508Y021688D01*
X013502Y021722D01*
X013500Y021756D01*
X013400Y021756D02*
X013402Y021796D01*
X013408Y021835D01*
X013418Y021874D01*
X013431Y021911D01*
X013449Y021947D01*
X013470Y021981D01*
X013494Y022013D01*
X013521Y022042D01*
X013551Y022069D01*
X013583Y022092D01*
X013618Y022112D01*
X013654Y022128D01*
X013692Y022141D01*
X013731Y022150D01*
X013770Y022155D01*
X013810Y022156D01*
X013850Y022153D01*
X013889Y022146D01*
X013927Y022135D01*
X013965Y022121D01*
X014000Y022102D01*
X014033Y022081D01*
X014065Y022056D01*
X014093Y022028D01*
X014119Y021998D01*
X014141Y021965D01*
X014160Y021930D01*
X014176Y021893D01*
X014188Y021855D01*
X014196Y021816D01*
X014200Y021776D01*
X014200Y021736D01*
X014196Y021696D01*
X014188Y021657D01*
X014176Y021619D01*
X014160Y021582D01*
X014141Y021547D01*
X014119Y021514D01*
X014093Y021484D01*
X014065Y021456D01*
X014033Y021431D01*
X014000Y021410D01*
X013965Y021391D01*
X013927Y021377D01*
X013889Y021366D01*
X013850Y021359D01*
X013810Y021356D01*
X013770Y021357D01*
X013731Y021362D01*
X013692Y021371D01*
X013654Y021384D01*
X013618Y021400D01*
X013583Y021420D01*
X013551Y021443D01*
X013521Y021470D01*
X013494Y021499D01*
X013470Y021531D01*
X013449Y021565D01*
X013431Y021601D01*
X013418Y021638D01*
X013408Y021677D01*
X013402Y021716D01*
X013400Y021756D01*
X020150Y021106D02*
X021450Y021106D01*
X021450Y022406D01*
X020150Y022406D01*
X020150Y021106D01*
X020500Y021756D02*
X020502Y021790D01*
X020508Y021824D01*
X020517Y021857D01*
X020531Y021888D01*
X020548Y021918D01*
X020568Y021946D01*
X020591Y021971D01*
X020617Y021994D01*
X020645Y022013D01*
X020675Y022029D01*
X020707Y022041D01*
X020740Y022050D01*
X020774Y022055D01*
X020809Y022056D01*
X020843Y022053D01*
X020876Y022046D01*
X020909Y022036D01*
X020940Y022021D01*
X020969Y022004D01*
X020996Y021983D01*
X021021Y021959D01*
X021043Y021932D01*
X021061Y021904D01*
X021076Y021873D01*
X021088Y021841D01*
X021096Y021807D01*
X021100Y021773D01*
X021100Y021739D01*
X021096Y021705D01*
X021088Y021671D01*
X021076Y021639D01*
X021061Y021608D01*
X021043Y021580D01*
X021021Y021553D01*
X020996Y021529D01*
X020969Y021508D01*
X020940Y021491D01*
X020909Y021476D01*
X020876Y021466D01*
X020843Y021459D01*
X020809Y021456D01*
X020774Y021457D01*
X020740Y021462D01*
X020707Y021471D01*
X020675Y021483D01*
X020645Y021499D01*
X020617Y021518D01*
X020591Y021541D01*
X020568Y021566D01*
X020548Y021594D01*
X020531Y021624D01*
X020517Y021655D01*
X020508Y021688D01*
X020502Y021722D01*
X020500Y021756D01*
X020400Y021756D02*
X020402Y021796D01*
X020408Y021835D01*
X020418Y021874D01*
X020431Y021911D01*
X020449Y021947D01*
X020470Y021981D01*
X020494Y022013D01*
X020521Y022042D01*
X020551Y022069D01*
X020583Y022092D01*
X020618Y022112D01*
X020654Y022128D01*
X020692Y022141D01*
X020731Y022150D01*
X020770Y022155D01*
X020810Y022156D01*
X020850Y022153D01*
X020889Y022146D01*
X020927Y022135D01*
X020965Y022121D01*
X021000Y022102D01*
X021033Y022081D01*
X021065Y022056D01*
X021093Y022028D01*
X021119Y021998D01*
X021141Y021965D01*
X021160Y021930D01*
X021176Y021893D01*
X021188Y021855D01*
X021196Y021816D01*
X021200Y021776D01*
X021200Y021736D01*
X021196Y021696D01*
X021188Y021657D01*
X021176Y021619D01*
X021160Y021582D01*
X021141Y021547D01*
X021119Y021514D01*
X021093Y021484D01*
X021065Y021456D01*
X021033Y021431D01*
X021000Y021410D01*
X020965Y021391D01*
X020927Y021377D01*
X020889Y021366D01*
X020850Y021359D01*
X020810Y021356D01*
X020770Y021357D01*
X020731Y021362D01*
X020692Y021371D01*
X020654Y021384D01*
X020618Y021400D01*
X020583Y021420D01*
X020551Y021443D01*
X020521Y021470D01*
X020494Y021499D01*
X020470Y021531D01*
X020449Y021565D01*
X020431Y021601D01*
X020418Y021638D01*
X020408Y021677D01*
X020402Y021716D01*
X020400Y021756D01*
X014250Y009856D02*
X014250Y007156D01*
X014248Y007105D01*
X014243Y007054D01*
X014233Y007004D01*
X014220Y006954D01*
X014204Y006906D01*
X014184Y006859D01*
X014160Y006813D01*
X014134Y006770D01*
X014104Y006728D01*
X014071Y006689D01*
X014036Y006652D01*
X013998Y006618D01*
X013957Y006587D01*
X013915Y006558D01*
X013870Y006533D01*
X013824Y006512D01*
X013776Y006493D01*
X013727Y006479D01*
X013677Y006468D01*
X013627Y006460D01*
X013576Y006456D01*
X013524Y006456D01*
X013473Y006460D01*
X013423Y006468D01*
X013373Y006479D01*
X013324Y006493D01*
X013276Y006512D01*
X013230Y006533D01*
X013185Y006558D01*
X013143Y006587D01*
X013102Y006618D01*
X013064Y006652D01*
X013029Y006689D01*
X012996Y006728D01*
X012966Y006770D01*
X012940Y006813D01*
X012916Y006859D01*
X012896Y006906D01*
X012880Y006954D01*
X012867Y007004D01*
X012857Y007054D01*
X012852Y007105D01*
X012850Y007156D01*
X012850Y009856D01*
X012852Y009907D01*
X012857Y009958D01*
X012867Y010008D01*
X012880Y010058D01*
X012896Y010106D01*
X012916Y010153D01*
X012940Y010199D01*
X012966Y010242D01*
X012996Y010284D01*
X013029Y010323D01*
X013064Y010360D01*
X013102Y010394D01*
X013143Y010425D01*
X013185Y010454D01*
X013230Y010479D01*
X013276Y010500D01*
X013324Y010519D01*
X013373Y010533D01*
X013423Y010544D01*
X013473Y010552D01*
X013524Y010556D01*
X013576Y010556D01*
X013627Y010552D01*
X013677Y010544D01*
X013727Y010533D01*
X013776Y010519D01*
X013824Y010500D01*
X013870Y010479D01*
X013915Y010454D01*
X013957Y010425D01*
X013998Y010394D01*
X014036Y010360D01*
X014071Y010323D01*
X014104Y010284D01*
X014134Y010242D01*
X014160Y010199D01*
X014184Y010153D01*
X014204Y010106D01*
X014220Y010058D01*
X014233Y010008D01*
X014243Y009958D01*
X014248Y009907D01*
X014250Y009856D01*
D15*
X012350Y010376D02*
X012050Y010376D01*
X011750Y010376D01*
X011750Y010626D02*
X012050Y010626D01*
X012350Y010626D01*
X008930Y012506D02*
X008930Y012756D01*
X008930Y013006D01*
X008680Y013006D02*
X008680Y012756D01*
X008680Y012506D01*
X008680Y017006D02*
X008680Y017256D01*
X008680Y017506D01*
X008930Y017506D02*
X008930Y017256D01*
X008930Y017006D01*
X011750Y006636D02*
X012050Y006636D01*
X012350Y006636D01*
X012350Y006386D02*
X012050Y006386D01*
X011750Y006386D01*
X020550Y007886D02*
X020800Y007886D01*
X021050Y007886D01*
X021050Y008136D02*
X020800Y008136D01*
X020550Y008136D01*
X021920Y016756D02*
X021920Y017006D01*
X021920Y017256D01*
X022170Y017256D02*
X022170Y017006D01*
X022170Y016756D01*
D16*
X023200Y020431D03*
X023200Y023081D03*
X018400Y023081D03*
X016200Y023081D03*
X016200Y020431D03*
X018400Y020431D03*
X011400Y020431D03*
X009200Y020431D03*
X009200Y023081D03*
X011400Y023081D03*
X004400Y023081D03*
X004400Y020431D03*
D17*
X024050Y013181D03*
X024050Y010831D03*
D18*
X023325Y010506D03*
X023325Y013506D03*
D19*
X023980Y006006D02*
X024200Y006006D01*
X024900Y006006D02*
X025120Y006006D01*
X025177Y005971D01*
X025232Y005933D01*
X025285Y005892D01*
X025335Y005848D01*
X025383Y005801D01*
X025427Y005751D01*
X025469Y005699D01*
X025508Y005644D01*
X025543Y005588D01*
X025575Y005529D01*
X025604Y005469D01*
X025629Y005407D01*
X025650Y005343D01*
X025668Y005279D01*
X025682Y005214D01*
X025692Y005147D01*
X025699Y005081D01*
X025701Y005014D01*
X025700Y004947D01*
X025694Y004881D01*
X025685Y004814D01*
X025672Y004749D01*
X025655Y004684D01*
X025635Y004621D01*
X025610Y004558D01*
X025583Y004497D01*
X025551Y004438D01*
X025517Y004381D01*
X025479Y004326D01*
X025438Y004273D01*
X025394Y004223D01*
X025347Y004175D01*
X025297Y004130D01*
X025245Y004089D01*
X025191Y004050D01*
X025134Y004014D01*
X025075Y003982D01*
X025015Y003953D01*
X024953Y003928D01*
X024890Y003906D01*
X024210Y003906D02*
X024147Y003928D01*
X024085Y003953D01*
X024025Y003982D01*
X023966Y004014D01*
X023909Y004050D01*
X023855Y004089D01*
X023803Y004130D01*
X023753Y004175D01*
X023706Y004223D01*
X023662Y004273D01*
X023621Y004326D01*
X023583Y004381D01*
X023549Y004438D01*
X023517Y004497D01*
X023490Y004558D01*
X023465Y004620D01*
X023445Y004684D01*
X023428Y004749D01*
X023415Y004814D01*
X023406Y004881D01*
X023400Y004947D01*
X023399Y005014D01*
X023401Y005081D01*
X023408Y005148D01*
X023418Y005214D01*
X023432Y005279D01*
X023450Y005343D01*
X023471Y005407D01*
X023496Y005469D01*
X023525Y005529D01*
X023557Y005588D01*
X023592Y005644D01*
X023631Y005699D01*
X023673Y005751D01*
X023718Y005801D01*
X023765Y005848D01*
X023815Y005892D01*
X023868Y005933D01*
X023923Y005971D01*
X023980Y006006D01*
X012850Y013256D02*
X012848Y013310D01*
X012843Y013364D01*
X012834Y013417D01*
X012821Y013470D01*
X012805Y013521D01*
X012785Y013571D01*
X012762Y013620D01*
X012736Y013668D01*
X012707Y013713D01*
X012674Y013756D01*
X012639Y013797D01*
X012601Y013836D01*
X012561Y013872D01*
X012518Y013905D01*
X012473Y013935D01*
X012426Y013962D01*
X011653Y013951D02*
X011605Y013921D01*
X011560Y013888D01*
X011517Y013852D01*
X011476Y013814D01*
X011439Y013772D01*
X011404Y013728D01*
X011373Y013682D01*
X011344Y013633D01*
X011320Y013583D01*
X011299Y013531D01*
X011281Y013477D01*
X011268Y013423D01*
X011258Y013368D01*
X011252Y013312D01*
X011250Y013256D01*
X011252Y013203D01*
X011257Y013149D01*
X011266Y013097D01*
X011278Y013045D01*
X011294Y012994D01*
X011313Y012944D01*
X011336Y012895D01*
X011362Y012848D01*
X011390Y012803D01*
X011422Y012760D01*
X011456Y012720D01*
X011494Y012681D01*
X011533Y012645D01*
X012562Y012641D02*
X012602Y012677D01*
X012640Y012716D01*
X012675Y012757D01*
X012707Y012800D01*
X012737Y012845D01*
X012763Y012892D01*
X012785Y012941D01*
X012805Y012992D01*
X012821Y013043D01*
X012834Y013095D01*
X012843Y013149D01*
X012848Y013202D01*
X012850Y013256D01*
D20*
X011123Y011006D02*
X001477Y011006D01*
X001477Y010711D01*
X002461Y010711D01*
X002461Y002640D01*
X001477Y002640D01*
X001477Y010711D01*
X002300Y011756D02*
X002300Y013756D01*
X006300Y013756D01*
X006300Y011756D01*
X002300Y011756D01*
X003335Y014563D02*
X000206Y014563D01*
X000206Y017949D01*
X005835Y017949D01*
X005835Y017319D01*
X005835Y015193D02*
X005835Y014563D01*
X005206Y014563D01*
X010139Y010711D02*
X010139Y002640D01*
X011123Y002640D01*
X011123Y010711D01*
X011123Y011006D01*
X011123Y010711D02*
X010139Y010711D01*
X011123Y002640D02*
X008269Y000140D01*
X004331Y000140D01*
X001477Y002640D01*
M02*
