%
M48
M72
T01C0.0240
T02C0.0315
T03C0.0320
T04C0.0394
T05C0.0400
T06C0.0433
T07C0.0470
T08C0.0520
T09C0.0710
%
T01
X13550Y9506
X13550Y7506
T02
X1969Y3132
X1969Y3920
X1969Y4707
X1969Y5494
X1969Y6282
X1969Y7069
X1969Y7857
X1969Y8644
X1969Y9431
X1969Y10219
X8800Y13756
X8800Y14756
X8800Y15756
X10631Y10219
X10631Y9431
X10631Y8644
X10631Y7857
X10631Y7069
X10631Y6282
X10631Y5494
X10631Y4707
X10631Y3920
X10631Y3132
T03
X23050Y17006
X21050Y17006
X18800Y16506
X18800Y15506
X18800Y14506
X18800Y13506
X18800Y12506
X18800Y11506
X18800Y10506
X18800Y9506
X18800Y8506
X18800Y7506
X18800Y6506
X18800Y5506
X18800Y4506
X18800Y3506
X20050Y4506
X20050Y5506
X20800Y7006
X20800Y9006
X23050Y5506
X23050Y4506
X24550Y4006
X24550Y5006
X24550Y6006
X15800Y5506
X15800Y4506
X15800Y3506
X15800Y6506
X15800Y7506
X15800Y8506
X15800Y9506
X15800Y10506
X15800Y11506
X15800Y12506
X15800Y13506
X15800Y14506
X15800Y15506
X15800Y16506
X13300Y17506
X12050Y17506
X9800Y17256
X7800Y17256
X12050Y14506
X12050Y13756
X12050Y12756
X12050Y11506
X12050Y9506
X12050Y7506
X12050Y5506
X9800Y12756
X7800Y12756
X13300Y14506
T04
X5520Y16256
X4300Y14366
X3119Y16256
T05
X24800Y18006
X24800Y17006
X24800Y16006
X24800Y15006
T06
X5300Y12756
X4300Y12756
X3300Y12756
T07
X5820Y19296
X7780Y19296
X7780Y24216
X5820Y24216
X12820Y24216
X14780Y24216
X14780Y19296
X12820Y19296
X19820Y24216
X21780Y24216
X21780Y19296
X19820Y19296
T08
X24800Y13006
X24800Y11006
X20800Y12006
T09
X5030Y21756
X8570Y21756
X12030Y21756
X15570Y21756
X19030Y21756
X22570Y21756
M30
